<?xml version="1.0" encoding="UTF-8"?>
<svg version="1.1" xmlns="http://www.w3.org/2000/svg" width="4500" height="5417">
<path d="M0 0 C8.3814671 7.40932201 16.41302453 15.22589112 23.68359375 23.734375 C26.22797476 26.65398796 28.85877257 29.48889781 31.4921875 32.328125 C36.5852301 37.82453783 41.61901023 43.37015185 46.6171875 48.953125 C51.88747233 54.83115439 57.18950935 60.67812885 62.53076172 66.49169922 C66.1469877 70.43105046 69.72601155 74.40238765 73.296875 78.3828125 C75.92798533 81.29740947 78.58371225 84.18851724 81.2421875 87.078125 C84.2194139 90.31525591 87.17671716 93.56450356 90.0546875 96.890625 C93.63656059 101.022234 97.35556708 105.02242427 101.07177734 109.03271484 C104.86605789 113.13006429 108.61265197 117.26723273 112.33984375 121.42578125 C114.9152856 124.28394742 117.51408446 127.12019117 120.1171875 129.953125 C125.72026186 136.05295678 131.25931716 142.20873721 136.7890625 148.375 C141.33954121 153.44184509 145.92324717 158.47674988 150.53076172 163.49169922 C154.1469877 167.43105046 157.72601155 171.40238765 161.296875 175.3828125 C163.92798533 178.29740947 166.58371225 181.18851724 169.2421875 184.078125 C172.2194139 187.31525591 175.17671716 190.56450356 178.0546875 193.890625 C181.63656059 198.022234 185.35556708 202.02242427 189.07177734 206.03271484 C192.86605789 210.13006429 196.61265197 214.26723273 200.33984375 218.42578125 C202.9152856 221.28394742 205.51408446 224.12019117 208.1171875 226.953125 C213.72026186 233.05295678 219.25931716 239.20873721 224.7890625 245.375 C229.33954121 250.44184509 233.92324717 255.47674988 238.53076172 260.49169922 C242.1469877 264.43105046 245.72601155 268.40238765 249.296875 272.3828125 C251.92798533 275.29740947 254.58371225 278.18851724 257.2421875 281.078125 C260.2194139 284.31525591 263.17671716 287.56450356 266.0546875 290.890625 C269.63656059 295.022234 273.35556708 299.02242427 277.07177734 303.03271484 C280.86605789 307.13006429 284.61265197 311.26723273 288.33984375 315.42578125 C290.9152856 318.28394742 293.51408446 321.12019117 296.1171875 323.953125 C301.72026186 330.05295678 307.25931716 336.20873721 312.7890625 342.375 C317.33954121 347.44184509 321.92324717 352.47674988 326.53076172 357.49169922 C330.1469877 361.43105046 333.72601155 365.40238765 337.296875 369.3828125 C339.92798533 372.29740947 342.58371225 375.18851724 345.2421875 378.078125 C348.2194139 381.31525591 351.17671716 384.56450356 354.0546875 387.890625 C357.63656059 392.022234 361.35556708 396.02242427 365.07177734 400.03271484 C368.8635617 404.12736871 372.60806534 408.26145507 376.33203125 412.41796875 C378.94991879 415.32225766 381.59471953 418.20083275 384.2421875 421.078125 C387.21943569 424.31523529 390.17671771 427.5645042 393.0546875 430.890625 C396.63656059 435.022234 400.35556708 439.02242427 404.07177734 443.03271484 C407.86605789 447.13006429 411.61265197 451.26723273 415.33984375 455.42578125 C417.9152856 458.28394742 420.51408446 461.12019117 423.1171875 463.953125 C428.72026186 470.05295678 434.25931716 476.20873721 439.7890625 482.375 C444.33954121 487.44184509 448.92324717 492.47674988 453.53076172 497.49169922 C457.1469877 501.43105046 460.72601155 505.40238765 464.296875 509.3828125 C466.92798533 512.29740947 469.58371225 515.18851724 472.2421875 518.078125 C475.2194139 521.31525591 478.17671716 524.56450356 481.0546875 527.890625 C484.63656059 532.022234 488.35556708 536.02242427 492.07177734 540.03271484 C495.86605789 544.13006429 499.61265197 548.26723273 503.33984375 552.42578125 C505.9152856 555.28394742 508.51408446 558.12019117 511.1171875 560.953125 C516.72026186 567.05295678 522.25931716 573.20873721 527.7890625 579.375 C532.33954121 584.44184509 536.92324717 589.47674988 541.53076172 594.49169922 C545.1469877 598.43105046 548.72601155 602.40238765 552.296875 606.3828125 C554.92798533 609.29740947 557.58371225 612.18851724 560.2421875 615.078125 C563.2194139 618.31525591 566.17671716 621.56450356 569.0546875 624.890625 C572.63656059 629.022234 576.35556708 633.02242427 580.07177734 637.03271484 C583.8635617 641.12736871 587.60806534 645.26145507 591.33203125 649.41796875 C593.94991879 652.32225766 596.59471953 655.20083275 599.2421875 658.078125 C602.21943569 661.31523529 605.17671771 664.5645042 608.0546875 667.890625 C611.63656059 672.022234 615.35556708 676.02242427 619.07177734 680.03271484 C622.86605789 684.13006429 626.61265197 688.26723273 630.33984375 692.42578125 C632.9152856 695.28394742 635.51408446 698.12019117 638.1171875 700.953125 C643.72026186 707.05295678 649.25931716 713.20873721 654.7890625 719.375 C659.33954121 724.44184509 663.92324717 729.47674988 668.53076172 734.49169922 C672.1469877 738.43105046 675.72601155 742.40238765 679.296875 746.3828125 C681.92798533 749.29740947 684.58371225 752.18851724 687.2421875 755.078125 C690.2194139 758.31525591 693.17671716 761.56450356 696.0546875 764.890625 C699.63656059 769.022234 703.35556708 773.02242427 707.07177734 777.03271484 C710.86605789 781.13006429 714.61265197 785.26723273 718.33984375 789.42578125 C720.9152856 792.28394742 723.51408446 795.12019117 726.1171875 797.953125 C730.98666035 803.25431562 735.81092203 808.59461359 740.6171875 813.953125 C745.3091559 819.17657301 750.01164556 824.38955782 754.7421875 829.578125 C757.54476131 832.65622066 760.32686625 835.7461437 763.0546875 838.890625 C766.44258997 842.78870573 769.93309708 846.58995283 773.42944336 850.39038086 C776.34494259 853.5607436 779.24094141 856.74698689 782.1171875 859.953125 C785.42720419 863.64142932 788.76428171 867.30382975 792.1171875 870.953125 C796.20636198 875.40377347 800.26087834 879.88390583 804.296875 884.3828125 C806.92798533 887.29740947 809.58371225 890.18851724 812.2421875 893.078125 C815.2194139 896.31525591 818.17671716 899.56450356 821.0546875 902.890625 C824.63656059 907.022234 828.35556708 911.02242427 832.07177734 915.03271484 C835.86605789 919.13006429 839.61265197 923.26723273 843.33984375 927.42578125 C845.9152856 930.28394742 848.51408446 933.12019117 851.1171875 935.953125 C856.72026186 942.05295678 862.25931716 948.20873721 867.7890625 954.375 C872.33954121 959.44184509 876.92324717 964.47674988 881.53076172 969.49169922 C885.14947226 973.43375702 888.73064452 977.40811997 892.3046875 981.390625 C894.89333753 984.25912909 897.50303896 987.1078915 900.1171875 989.953125 C904.20636198 994.40377347 908.26087834 998.88390583 912.296875 1003.3828125 C914.92798533 1006.29740947 917.58371225 1009.18851724 920.2421875 1012.078125 C923.2194139 1015.31525591 926.17671716 1018.56450356 929.0546875 1021.890625 C932.63656059 1026.022234 936.35556708 1030.02242427 940.07177734 1034.03271484 C943.86605789 1038.13006429 947.61265197 1042.26723273 951.33984375 1046.42578125 C953.9152856 1049.28394742 956.51408446 1052.12019117 959.1171875 1054.953125 C964.72026186 1061.05295678 970.25931716 1067.20873721 975.7890625 1073.375 C980.33954121 1078.44184509 984.92324717 1083.47674988 989.53076172 1088.49169922 C993.14947226 1092.43375702 996.73064452 1096.40811997 1000.3046875 1100.390625 C1002.89333753 1103.25912909 1005.50303896 1106.1078915 1008.1171875 1108.953125 C1012.21581453 1113.4140616 1016.28319165 1117.90126085 1020.3203125 1122.41796875 C1021.91514646 1124.17825317 1023.53142853 1125.91924781 1025.1640625 1127.64453125 C1053.49328784 1157.73409863 1071.12795522 1194.24665593 1070.9296875 1236.140625 C1070.92404785 1237.40511475 1070.9184082 1238.66960449 1070.91259766 1239.97241211 C1070.44648492 1276.19306378 1056.92433591 1310.17032701 1032.6171875 1336.953125 C1032.15135254 1337.46858887 1031.68551758 1337.98405273 1031.20556641 1338.51513672 C1028.89871773 1341.06120233 1026.57724627 1343.59307284 1024.2421875 1346.11328125 C1020.32281472 1350.35343603 1016.47212336 1354.65445551 1012.6171875 1358.953125 C1007.34635734 1364.83066942 1002.04487078 1370.67812327 996.70361328 1376.49169922 C993.0873873 1380.43105046 989.50836345 1384.40238765 985.9375 1388.3828125 C983.30638967 1391.29740947 980.65066275 1394.18851724 977.9921875 1397.078125 C975.0149611 1400.31525591 972.05765784 1403.56450356 969.1796875 1406.890625 C965.59781441 1411.022234 961.87880792 1415.02242427 958.16259766 1419.03271484 C954.3708133 1423.12736871 950.62630966 1427.26145507 946.90234375 1431.41796875 C944.28445621 1434.32225766 941.63965547 1437.20083275 938.9921875 1440.078125 C936.01493931 1443.31523529 933.05765729 1446.5645042 930.1796875 1449.890625 C926.59781441 1454.022234 922.87880792 1458.02242427 919.16259766 1462.03271484 C915.3708133 1466.12736871 911.62630966 1470.26145507 907.90234375 1474.41796875 C905.28445621 1477.32225766 902.63965547 1480.20083275 899.9921875 1483.078125 C897.01493931 1486.31523529 894.05765729 1489.5645042 891.1796875 1492.890625 C887.59781441 1497.022234 883.87880792 1501.02242427 880.16259766 1505.03271484 C876.3708133 1509.12736871 872.62630966 1513.26145507 868.90234375 1517.41796875 C866.28445621 1520.32225766 863.63965547 1523.20083275 860.9921875 1526.078125 C858.01493931 1529.31523529 855.05765729 1532.5645042 852.1796875 1535.890625 C848.59781441 1540.022234 844.87880792 1544.02242427 841.16259766 1548.03271484 C837.3708133 1552.12736871 833.62630966 1556.26145507 829.90234375 1560.41796875 C827.28445621 1563.32225766 824.63965547 1566.20083275 821.9921875 1569.078125 C819.01493931 1572.31523529 816.05765729 1575.5645042 813.1796875 1578.890625 C809.59781441 1583.022234 805.87880792 1587.02242427 802.16259766 1591.03271484 C798.3708133 1595.12736871 794.62630966 1599.26145507 790.90234375 1603.41796875 C788.28445621 1606.32225766 785.63965547 1609.20083275 782.9921875 1612.078125 C780.01493931 1615.31523529 777.05765729 1618.5645042 774.1796875 1621.890625 C770.59916438 1626.02067685 766.88138988 1630.0191657 763.16699219 1634.02832031 C758.60122108 1638.95958154 754.09974088 1643.94610468 749.6171875 1648.953125 C744.34690267 1654.83115439 739.04486565 1660.67812885 733.70361328 1666.49169922 C730.0873873 1670.43105046 726.50836345 1674.40238765 722.9375 1678.3828125 C720.30638967 1681.29740947 717.65066275 1684.18851724 714.9921875 1687.078125 C712.0149611 1690.31525591 709.05765784 1693.56450356 706.1796875 1696.890625 C702.59781441 1701.022234 698.87880792 1705.02242427 695.16259766 1709.03271484 C691.3708133 1713.12736871 687.62630966 1717.26145507 683.90234375 1721.41796875 C681.28445621 1724.32225766 678.63965547 1727.20083275 675.9921875 1730.078125 C673.01493931 1733.31523529 670.05765729 1736.5645042 667.1796875 1739.890625 C663.59781441 1744.022234 659.87880792 1748.02242427 656.16259766 1752.03271484 C652.36831711 1756.13006429 648.62172303 1760.26723273 644.89453125 1764.42578125 C642.3190894 1767.28394742 639.72029054 1770.12019117 637.1171875 1772.953125 C632.24772 1778.25430979 627.42295683 1783.59417359 622.6171875 1788.953125 C617.34635734 1794.83066942 612.04487078 1800.67812327 606.70361328 1806.49169922 C603.0873873 1810.43105046 599.50836345 1814.40238765 595.9375 1818.3828125 C593.30638967 1821.29740947 590.65066275 1824.18851724 587.9921875 1827.078125 C585.0149611 1830.31525591 582.05765784 1833.56450356 579.1796875 1836.890625 C575.59781441 1841.022234 571.87880792 1845.02242427 568.16259766 1849.03271484 C564.36831711 1853.13006429 560.62172303 1857.26723273 556.89453125 1861.42578125 C554.3190894 1864.28394742 551.72029054 1867.12019117 549.1171875 1869.953125 C544.24772 1875.25430979 539.42295683 1880.59417359 534.6171875 1885.953125 C529.34635734 1891.83066942 524.04487078 1897.67812327 518.70361328 1903.49169922 C515.0873873 1907.43105046 511.50836345 1911.40238765 507.9375 1915.3828125 C505.30638967 1918.29740947 502.65066275 1921.18851724 499.9921875 1924.078125 C497.0149611 1927.31525591 494.05765784 1930.56450356 491.1796875 1933.890625 C487.59781441 1938.022234 483.87880792 1942.02242427 480.16259766 1946.03271484 C476.36831711 1950.13006429 472.62172303 1954.26723273 468.89453125 1958.42578125 C466.3190894 1961.28394742 463.72029054 1964.12019117 461.1171875 1966.953125 C456.24772 1972.25430979 451.42295683 1977.59417359 446.6171875 1982.953125 C441.34635734 1988.83066942 436.04487078 1994.67812327 430.70361328 2000.49169922 C427.0873873 2004.43105046 423.50836345 2008.40238765 419.9375 2012.3828125 C417.30638967 2015.29740947 414.65066275 2018.18851724 411.9921875 2021.078125 C409.0149611 2024.31525591 406.05765784 2027.56450356 403.1796875 2030.890625 C399.59781441 2035.022234 395.87880792 2039.02242427 392.16259766 2043.03271484 C388.36831711 2047.13006429 384.62172303 2051.26723273 380.89453125 2055.42578125 C378.3190894 2058.28394742 375.72029054 2061.12019117 373.1171875 2063.953125 C368.24772 2069.25430979 363.42295683 2074.59417359 358.6171875 2079.953125 C353.34635734 2085.83066942 348.04487078 2091.67812327 342.70361328 2097.49169922 C339.0873873 2101.43105046 335.50836345 2105.40238765 331.9375 2109.3828125 C329.30638967 2112.29740947 326.65066275 2115.18851724 323.9921875 2118.078125 C321.0149611 2121.31525591 318.05765784 2124.56450356 315.1796875 2127.890625 C311.59781441 2132.022234 307.87880792 2136.02242427 304.16259766 2140.03271484 C300.36831711 2144.13006429 296.62172303 2148.26723273 292.89453125 2152.42578125 C290.3190894 2155.28394742 287.72029054 2158.12019117 285.1171875 2160.953125 C280.24772 2166.25430979 275.42295683 2171.59417359 270.6171875 2176.953125 C265.34635734 2182.83066942 260.04487078 2188.67812327 254.70361328 2194.49169922 C251.0873873 2198.43105046 247.50836345 2202.40238765 243.9375 2206.3828125 C241.30638967 2209.29740947 238.65066275 2212.18851724 235.9921875 2215.078125 C233.0149611 2218.31525591 230.05765784 2221.56450356 227.1796875 2224.890625 C223.59781441 2229.022234 219.87880792 2233.02242427 216.16259766 2237.03271484 C212.36831711 2241.13006429 208.62172303 2245.26723273 204.89453125 2249.42578125 C202.3190894 2252.28394742 199.72029054 2255.12019117 197.1171875 2257.953125 C192.24772 2263.25430979 187.42295683 2268.59417359 182.6171875 2273.953125 C177.34635734 2279.83066942 172.04487078 2285.67812327 166.70361328 2291.49169922 C163.0873873 2295.43105046 159.50836345 2299.40238765 155.9375 2303.3828125 C153.30638967 2306.29740947 150.65066275 2309.18851724 147.9921875 2312.078125 C145.0149611 2315.31525591 142.05765784 2318.56450356 139.1796875 2321.890625 C135.59781441 2326.022234 131.87880792 2330.02242427 128.16259766 2334.03271484 C124.36831711 2338.13006429 120.62172303 2342.26723273 116.89453125 2346.42578125 C114.3190894 2349.28394742 111.72029054 2352.12019117 109.1171875 2354.953125 C104.24772 2360.25430979 99.42295683 2365.59417359 94.6171875 2370.953125 C89.34635734 2376.83066942 84.04487078 2382.67812327 78.70361328 2388.49169922 C75.0873873 2392.43105046 71.50836345 2396.40238765 67.9375 2400.3828125 C65.30638967 2403.29740947 62.65066275 2406.18851724 59.9921875 2409.078125 C57.0149611 2412.31525591 54.05765784 2415.56450356 51.1796875 2418.890625 C47.59781441 2423.022234 43.87880792 2427.02242427 40.16259766 2431.03271484 C36.36831711 2435.13006429 32.62172303 2439.26723273 28.89453125 2443.42578125 C25.85167836 2446.80266945 22.77944282 2450.15234841 19.69628906 2453.49243164 C17.56547953 2455.80525709 15.46251648 2458.13270763 13.41015625 2460.515625 C-9.57298656 2487.12319664 -43.45737441 2504.29606093 -78.3828125 2507.953125 C-83.9697722 2508.24068148 -89.53953784 2508.29450806 -95.1328125 2508.265625 C-95.88459778 2508.26346985 -96.63638306 2508.2613147 -97.41094971 2508.25909424 C-108.3596307 2508.20871196 -118.75469995 2507.81246492 -129.3828125 2504.953125 C-130.15125488 2504.75444824 -130.91969727 2504.55577148 -131.71142578 2504.35107422 C-171.14293577 2494.01916728 -204.84121687 2470.36050772 -225.93920898 2435.22387695 C-239.6073203 2411.56060891 -245.54128421 2385.8594908 -245.52325439 2358.69267273 C-245.52584076 2357.13188457 -245.52885468 2355.57109707 -245.5322578 2354.01031047 C-245.5402995 2349.73246554 -245.54211579 2345.45463742 -245.54285526 2341.17678583 C-245.54471082 2336.55824676 -245.5522608 2331.93971631 -245.55899048 2327.32118225 C-245.57255543 2317.22566209 -245.578596 2307.1301459 -245.58300114 2297.03461814 C-245.58576735 2290.72467004 -245.59000546 2284.41472346 -245.59450531 2278.10477638 C-245.60669687 2260.61750605 -245.61699557 2243.13023694 -245.6203804 2225.64296246 C-245.62059997 2224.52433083 -245.62081953 2223.4056992 -245.62104575 2222.25316964 C-245.62126403 2221.13192794 -245.62148231 2220.01068623 -245.6217072 2218.8554675 C-245.62215066 2216.58357664 -245.62259722 2214.31168578 -245.62304688 2212.03979492 C-245.6232683 2210.91286922 -245.62348973 2209.78594352 -245.62371787 2208.62486855 C-245.62766205 2190.38319021 -245.64510498 2172.1415519 -245.6684064 2153.89988901 C-245.69216356 2135.14924665 -245.70458428 2116.39862433 -245.70574832 2097.64796668 C-245.70666277 2087.12926382 -245.71235662 2076.6106131 -245.73056793 2066.09192467 C-245.7460281 2057.13093894 -245.75105476 2048.17002147 -245.74282983 2039.20902493 C-245.73894383 2034.64363834 -245.7397516 2030.07838895 -245.75388718 2025.51301956 C-245.87413285 1984.32582356 -245.87413285 1984.32582356 -239.6953125 1964.890625 C-239.44040039 1964.07174805 -239.18548828 1963.25287109 -238.92285156 1962.40917969 C-231.0246796 1937.88427057 -217.61691872 1918.63810505 -200.15625 1899.94140625 C-198.01926936 1897.6495409 -195.93057902 1895.32553743 -193.8828125 1892.953125 C-190.32463403 1888.83952354 -186.6243913 1884.86217225 -182.92797852 1880.87329102 C-179.13379986 1876.77600431 -175.38727122 1872.63893157 -171.66015625 1868.48046875 C-169.0847144 1865.62230258 -166.48591554 1862.78605883 -163.8828125 1859.953125 C-159.013345 1854.65194021 -154.18858183 1849.31207641 -149.3828125 1843.953125 C-144.11198234 1838.07558058 -138.81049578 1832.22812673 -133.46923828 1826.41455078 C-130.58887421 1823.27681387 -127.72765003 1820.12308682 -124.8828125 1816.953125 C-121.57279528 1813.2648201 -118.2356675 1809.60246735 -114.8828125 1805.953125 C-110.01338205 1800.65190577 -105.18858226 1795.31207689 -100.3828125 1789.953125 C-95.11198234 1784.07558058 -89.81049578 1778.22812673 -84.46923828 1772.41455078 C-80.8530123 1768.47519954 -77.27398845 1764.50386235 -73.703125 1760.5234375 C-71.07201467 1757.60884053 -68.41628775 1754.71773276 -65.7578125 1751.828125 C-62.7805861 1748.59099409 -59.82328284 1745.34174644 -56.9453125 1742.015625 C-53.36343941 1737.884016 -49.64443292 1733.88382573 -45.92822266 1729.87353516 C-42.13394211 1725.77618571 -38.38734803 1721.63901727 -34.66015625 1717.48046875 C-32.0847144 1714.62230258 -29.48591554 1711.78605883 -26.8828125 1708.953125 C-22.013345 1703.65194021 -17.18858183 1698.31207641 -12.3828125 1692.953125 C-7.11198234 1687.07558058 -1.81049578 1681.22812673 3.53076172 1675.41455078 C7.1469877 1671.47519954 10.72601155 1667.50386235 14.296875 1663.5234375 C16.92798533 1660.60884053 19.58371225 1657.71773276 22.2421875 1654.828125 C25.2194139 1651.59099409 28.17671716 1648.34174644 31.0546875 1645.015625 C34.63656059 1640.884016 38.35556708 1636.88382573 42.07177734 1632.87353516 C45.86605789 1628.77618571 49.61265197 1624.63901727 53.33984375 1620.48046875 C55.9152856 1617.62230258 58.51408446 1614.78605883 61.1171875 1611.953125 C65.986655 1606.65194021 70.81141817 1601.31207641 75.6171875 1595.953125 C80.88801766 1590.07558058 86.18950422 1584.22812673 91.53076172 1578.41455078 C94.41112579 1575.27681387 97.27234997 1572.12308682 100.1171875 1568.953125 C103.42720472 1565.2648201 106.7643325 1561.60246735 110.1171875 1557.953125 C114.98661795 1552.65190577 119.81141774 1547.31207689 124.6171875 1541.953125 C129.88801766 1536.07558058 135.18950422 1530.22812673 140.53076172 1524.41455078 C144.1469877 1520.47519954 147.72601155 1516.50386235 151.296875 1512.5234375 C153.92798533 1509.60884053 156.58371225 1506.71773276 159.2421875 1503.828125 C162.2194139 1500.59099409 165.17671716 1497.34174644 168.0546875 1494.015625 C171.63656059 1489.884016 175.35556708 1485.88382573 179.07177734 1481.87353516 C182.86605789 1477.77618571 186.61265197 1473.63901727 190.33984375 1469.48046875 C192.9152856 1466.62230258 195.51408446 1463.78605883 198.1171875 1460.953125 C202.986655 1455.65194021 207.81141817 1450.31207641 212.6171875 1444.953125 C217.88801766 1439.07558058 223.18950422 1433.22812673 228.53076172 1427.41455078 C232.1469877 1423.47519954 235.72601155 1419.50386235 239.296875 1415.5234375 C241.92798533 1412.60884053 244.58371225 1409.71773276 247.2421875 1406.828125 C250.2194139 1403.59099409 253.17671716 1400.34174644 256.0546875 1397.015625 C259.63656059 1392.884016 263.35556708 1388.88382573 267.07177734 1384.87353516 C270.86605789 1380.77618571 274.61265197 1376.63901727 278.33984375 1372.48046875 C280.9152856 1369.62230258 283.51408446 1366.78605883 286.1171875 1363.953125 C290.986655 1358.65194021 295.81141817 1353.31207641 300.6171875 1347.953125 C305.88801766 1342.07558058 311.18950422 1336.22812673 316.53076172 1330.41455078 C319.41112579 1327.27681387 322.27234997 1324.12308682 325.1171875 1320.953125 C328.42720472 1317.2648201 331.7643325 1313.60246735 335.1171875 1309.953125 C339.98661795 1304.65190577 344.81141774 1299.31207689 349.6171875 1293.953125 C354.88801766 1288.07558058 360.18950422 1282.22812673 365.53076172 1276.41455078 C369.1469877 1272.47519954 372.72601155 1268.50386235 376.296875 1264.5234375 C378.92798582 1261.60884 381.58375109 1258.71776906 384.2421875 1255.828125 C387.81114435 1251.9466479 391.32754623 1248.02736358 394.78125 1244.04296875 C398.66360472 1239.62369264 402.64966085 1235.29585035 406.6171875 1230.953125 C405.27719252 1227.946307 403.81873459 1225.95549891 401.4296875 1223.703125 C398.98120494 1221.32488579 396.65647697 1218.91513041 394.4296875 1216.328125 C391.27636134 1212.67168388 388.02442097 1209.11832151 384.7421875 1205.578125 C379.64926872 1200.08159557 374.61536703 1194.53610067 369.6171875 1188.953125 C364.34690267 1183.07509561 359.04486565 1177.22812115 353.70361328 1171.41455078 C350.0873873 1167.47519954 346.50836345 1163.50386235 342.9375 1159.5234375 C340.30638967 1156.60884053 337.65066275 1153.71773276 334.9921875 1150.828125 C332.0149611 1147.59099409 329.05765784 1144.34174644 326.1796875 1141.015625 C322.59781441 1136.884016 318.87880792 1132.88382573 315.16259766 1128.87353516 C311.36831711 1124.77618571 307.62172303 1120.63901727 303.89453125 1116.48046875 C301.3190894 1113.62230258 298.72029054 1110.78605883 296.1171875 1107.953125 C290.51411314 1101.85329322 284.97505784 1095.69751279 279.4453125 1089.53125 C274.89483379 1084.46440491 270.31112783 1079.42950012 265.70361328 1074.41455078 C262.0873873 1070.47519954 258.50836345 1066.50386235 254.9375 1062.5234375 C252.30638967 1059.60884053 249.65066275 1056.71773276 246.9921875 1053.828125 C244.0149611 1050.59099409 241.05765784 1047.34174644 238.1796875 1044.015625 C234.59781441 1039.884016 230.87880792 1035.88382573 227.16259766 1031.87353516 C223.3708133 1027.77888129 219.62630966 1023.64479493 215.90234375 1019.48828125 C213.28445621 1016.58399234 210.63965547 1013.70541725 207.9921875 1010.828125 C205.01493931 1007.59101471 202.05765729 1004.3417458 199.1796875 1001.015625 C195.59781441 996.884016 191.87880792 992.88382573 188.16259766 988.87353516 C184.3708133 984.77888129 180.62630966 980.64479493 176.90234375 976.48828125 C174.28445621 973.58399234 171.63965547 970.70541725 168.9921875 967.828125 C166.01493931 964.59101471 163.05765729 961.3417458 160.1796875 958.015625 C156.59781441 953.884016 152.87880792 949.88382573 149.16259766 945.87353516 C145.3708133 941.77888129 141.62630966 937.64479493 137.90234375 933.48828125 C135.28445621 930.58399234 132.63965547 927.70541725 129.9921875 924.828125 C127.01493931 921.59101471 124.05765729 918.3417458 121.1796875 915.015625 C117.59781441 910.884016 113.87880792 906.88382573 110.16259766 902.87353516 C106.3708133 898.77888129 102.62630966 894.64479493 98.90234375 890.48828125 C96.28445621 887.58399234 93.63965547 884.70541725 90.9921875 881.828125 C88.01493931 878.59101471 85.05765729 875.3417458 82.1796875 872.015625 C78.59781441 867.884016 74.87880792 863.88382573 71.16259766 859.87353516 C67.3708133 855.77888129 63.62630966 851.64479493 59.90234375 847.48828125 C57.28445621 844.58399234 54.63965547 841.70541725 51.9921875 838.828125 C49.01493931 835.59101471 46.05765729 832.3417458 43.1796875 829.015625 C39.59781441 824.884016 35.87880792 820.88382573 32.16259766 816.87353516 C28.3708133 812.77888129 24.62630966 808.64479493 20.90234375 804.48828125 C18.28445621 801.58399234 15.63965547 798.70541725 12.9921875 795.828125 C10.01493931 792.59101471 7.05765729 789.3417458 4.1796875 786.015625 C0.59781441 781.884016 -3.12119208 777.88382573 -6.83740234 773.87353516 C-10.63168289 769.77618571 -14.37827697 765.63901727 -18.10546875 761.48046875 C-20.6809106 758.62230258 -23.27970946 755.78605883 -25.8828125 752.953125 C-31.48588686 746.85329322 -37.02494216 740.69751279 -42.5546875 734.53125 C-47.10516621 729.46440491 -51.68887217 724.42950012 -56.29638672 719.41455078 C-59.9126127 715.47519954 -63.49163655 711.50386235 -67.0625 707.5234375 C-69.69361033 704.60884053 -72.34933725 701.71773276 -75.0078125 698.828125 C-77.9850389 695.59099409 -80.94234216 692.34174644 -83.8203125 689.015625 C-87.40218559 684.884016 -91.12119208 680.88382573 -94.83740234 676.87353516 C-98.6291867 672.77888129 -102.37369034 668.64479493 -106.09765625 664.48828125 C-108.71554379 661.58399234 -111.36034453 658.70541725 -114.0078125 655.828125 C-116.98506069 652.59101471 -119.94234271 649.3417458 -122.8203125 646.015625 C-126.40218559 641.884016 -130.12119208 637.88382573 -133.83740234 633.87353516 C-137.6291867 629.77888129 -141.37369034 625.64479493 -145.09765625 621.48828125 C-147.71554379 618.58399234 -150.36034453 615.70541725 -153.0078125 612.828125 C-155.98506069 609.59101471 -158.94234271 606.3417458 -161.8203125 603.015625 C-165.40218559 598.884016 -169.12119208 594.88382573 -172.83740234 590.87353516 C-176.6291867 586.77888129 -180.37369034 582.64479493 -184.09765625 578.48828125 C-186.71554456 575.58399148 -189.36040234 572.70547137 -192.0078125 569.828125 C-195.61144322 565.90850542 -199.1709596 561.95799967 -202.6484375 557.92578125 C-203.90585228 556.49561354 -205.19094093 555.0896248 -206.4921875 553.69921875 C-232.63359916 525.61973692 -245.54956589 489.15693617 -245.52325439 451.11064148 C-245.52584172 449.60745013 -245.5288559 448.10425947 -245.5322578 446.60106975 C-245.54028817 442.48703668 -245.54211515 438.37302109 -245.54285526 434.25898111 C-245.54471281 429.81494774 -245.55226375 425.37092331 -245.55899048 420.92689514 C-245.57254722 411.21565236 -245.57859468 401.50441373 -245.58300114 391.79316306 C-245.58576867 385.72190308 -245.590007 379.65064467 -245.59450531 373.57938576 C-245.60669565 356.74917927 -245.61699468 339.91897404 -245.6203804 323.08876324 C-245.62059997 322.01246485 -245.62081953 320.93616646 -245.62104575 319.82725297 C-245.62126403 318.7484641 -245.62148231 317.66967522 -245.6217072 316.55819577 C-245.62215066 314.37237465 -245.62259722 312.18655354 -245.62304688 310.00073242 C-245.6232683 308.91650314 -245.62348973 307.83227385 -245.62371787 306.71518914 C-245.62766174 289.16616753 -245.64510424 271.61718756 -245.6684064 254.06818201 C-245.69217165 236.02376085 -245.70458464 217.97936053 -245.70574832 199.93492347 C-245.7066623 189.81470808 -245.71234426 179.69454692 -245.73056793 169.57434654 C-245.74603906 160.95267452 -245.75104838 152.33107347 -245.74282983 143.70939019 C-245.73894769 139.31804361 -245.73973222 134.92683965 -245.75388718 130.53551102 C-245.87941715 89.2387952 -245.87941715 89.2387952 -239.8828125 70.140625 C-239.63563477 69.34060059 -239.38845703 68.54057617 -239.13378906 67.71630859 C-233.86035456 51.55748663 -226.1414777 36.13566352 -215.3828125 22.953125 C-214.91230469 22.36740723 -214.44179687 21.78168945 -213.95703125 21.17822266 C-188.41172684 -10.40797333 -151.8311886 -30.19550698 -111.38671875 -34.66015625 C-70.35862131 -38.27921451 -31.35153874 -26.93148573 0 0 Z " fill="#141414" transform="translate(2827.3828125,836.046875)"/>
<path d="M0 0 C2.62464797 2.42327411 5.19717425 4.89440973 7.76171875 7.38134766 C8.46167969 8.05294922 9.16164063 8.72455078 9.8828125 9.41650391 C13.36220111 12.81840056 16.57645465 16.40509981 19.75390625 20.08837891 C22.1724441 22.85040559 24.65059609 25.55535907 27.13671875 28.25634766 C30.53222448 31.9467384 33.91287058 35.64840221 37.26171875 39.38134766 C40.57173544 43.06965197 43.90881296 46.73205241 47.26171875 50.38134766 C51.35089323 54.83199612 55.40540959 59.31212848 59.44140625 63.81103516 C62.07251658 66.72563213 64.7282435 69.6167399 67.38671875 72.50634766 C70.36394515 75.74347856 73.32124841 78.99272622 76.19921875 82.31884766 C79.78109184 86.45045666 83.50009833 90.45064692 87.21630859 94.4609375 C91.00809295 98.55559137 94.75259659 102.68967773 98.4765625 106.84619141 C101.09445004 109.75048031 103.73925078 112.62905541 106.38671875 115.50634766 C109.36396694 118.74345795 112.32124896 121.99272685 115.19921875 125.31884766 C118.78109184 129.45045666 122.50009833 133.45064692 126.21630859 137.4609375 C130.01058914 141.55828694 133.75718322 145.69545539 137.484375 149.85400391 C140.05981685 152.71217008 142.65861571 155.54841383 145.26171875 158.38134766 C150.86479311 164.48117943 156.40384841 170.63695986 161.93359375 176.80322266 C166.48407246 181.87006774 171.06777842 186.90497254 175.67529297 191.91992188 C179.29151895 195.85927311 182.8705428 199.83061031 186.44140625 203.81103516 C189.07251658 206.72563213 191.7282435 209.6167399 194.38671875 212.50634766 C197.36394515 215.74347856 200.32124841 218.99272622 203.19921875 222.31884766 C206.78109184 226.45045666 210.50009833 230.45064692 214.21630859 234.4609375 C218.00809295 238.55559137 221.75259659 242.68967773 225.4765625 246.84619141 C228.09445004 249.75048031 230.73925078 252.62905541 233.38671875 255.50634766 C236.36396694 258.74345795 239.32124896 261.99272685 242.19921875 265.31884766 C245.78109184 269.45045666 249.50009833 273.45064692 253.21630859 277.4609375 C257.01058914 281.55828694 260.75718322 285.69545539 264.484375 289.85400391 C267.05981685 292.71217008 269.65861571 295.54841383 272.26171875 298.38134766 C277.86479311 304.48117943 283.40384841 310.63695986 288.93359375 316.80322266 C293.48407246 321.87006774 298.06777842 326.90497254 302.67529297 331.91992188 C306.29151895 335.85927311 309.8705428 339.83061031 313.44140625 343.81103516 C316.07251658 346.72563213 318.7282435 349.6167399 321.38671875 352.50634766 C324.36394515 355.74347856 327.32124841 358.99272622 330.19921875 362.31884766 C333.78109184 366.45045666 337.50009833 370.45064692 341.21630859 374.4609375 C345.01058914 378.55828694 348.75718322 382.69545539 352.484375 386.85400391 C355.05981685 389.71217008 357.65861571 392.54841383 360.26171875 395.38134766 C365.86479311 401.48117943 371.40384841 407.63695986 376.93359375 413.80322266 C381.48407246 418.87006774 386.06777842 423.90497254 390.67529297 428.91992188 C394.29151895 432.85927311 397.8705428 436.83061031 401.44140625 440.81103516 C404.07251658 443.72563213 406.7282435 446.6167399 409.38671875 449.50634766 C412.36394515 452.74347856 415.32124841 455.99272622 418.19921875 459.31884766 C421.78109184 463.45045666 425.50009833 467.45064692 429.21630859 471.4609375 C433.01058914 475.55828694 436.75718322 479.69545539 440.484375 483.85400391 C443.05981685 486.71217008 445.65861571 489.54841383 448.26171875 492.38134766 C453.86479311 498.48117943 459.40384841 504.63695986 464.93359375 510.80322266 C469.48407246 515.87006774 474.06777842 520.90497254 478.67529297 525.91992188 C482.29151895 529.85927311 485.8705428 533.83061031 489.44140625 537.81103516 C492.07251658 540.72563213 494.7282435 543.6167399 497.38671875 546.50634766 C500.36394515 549.74347856 503.32124841 552.99272622 506.19921875 556.31884766 C509.78109184 560.45045666 513.50009833 564.45064692 517.21630859 568.4609375 C521.00809295 572.55559137 524.75259659 576.68967773 528.4765625 580.84619141 C531.09445004 583.75048031 533.73925078 586.62905541 536.38671875 589.50634766 C539.36396694 592.74345795 542.32124896 595.99272685 545.19921875 599.31884766 C548.78109184 603.45045666 552.50009833 607.45064692 556.21630859 611.4609375 C560.01058914 615.55828694 563.75718322 619.69545539 567.484375 623.85400391 C570.05981685 626.71217008 572.65861571 629.54841383 575.26171875 632.38134766 C580.86479311 638.48117943 586.40384841 644.63695986 591.93359375 650.80322266 C596.48407246 655.87006774 601.06777842 660.90497254 605.67529297 665.91992188 C609.29151895 669.85927311 612.8705428 673.83061031 616.44140625 677.81103516 C619.07251658 680.72563213 621.7282435 683.6167399 624.38671875 686.50634766 C627.36394515 689.74347856 630.32124841 692.99272622 633.19921875 696.31884766 C636.78109184 700.45045666 640.50009833 704.45064692 644.21630859 708.4609375 C648.01058914 712.55828694 651.75718322 716.69545539 655.484375 720.85400391 C658.05981685 723.71217008 660.65861571 726.54841383 663.26171875 729.38134766 C668.86479311 735.48117943 674.40384841 741.63695986 679.93359375 747.80322266 C684.48407246 752.87006774 689.06777842 757.90497254 693.67529297 762.91992188 C697.29151895 766.85927311 700.8705428 770.83061031 704.44140625 774.81103516 C707.07251658 777.72563213 709.7282435 780.6167399 712.38671875 783.50634766 C715.36394515 786.74347856 718.32124841 789.99272622 721.19921875 793.31884766 C724.77974187 797.4488995 728.49751637 801.44738836 732.21191406 805.45654297 C736.77769807 810.38781813 741.2782097 815.37517088 745.76171875 820.38134766 C747.26128494 822.04840465 748.76128928 823.71506761 750.26171875 825.38134766 C753.26171875 828.71468099 756.26171875 832.04801432 759.26171875 835.38134766 C760.37933594 836.62271484 760.37933594 836.62271484 761.51953125 837.88916016 C762.99464493 839.52874644 764.46863527 841.1693442 765.94140625 842.81103516 C770.02320545 847.35766558 774.1284635 851.88145577 778.26171875 856.38134766 C783.86466527 862.48129844 789.40384685 868.63695813 794.93359375 874.80322266 C799.48407246 879.87006774 804.06777842 884.90497254 808.67529297 889.91992188 C812.29400351 893.86197967 815.87517577 897.83634262 819.44921875 901.81884766 C822.03786911 904.6873521 824.64760983 907.53607747 827.26171875 910.38134766 C832.86475051 916.48121909 838.40384789 922.63695928 843.93359375 928.80322266 C848.48407246 933.87006774 853.06777842 938.90497254 857.67529297 943.91992188 C861.29400351 947.86197967 864.87517577 951.83634262 868.44921875 955.81884766 C871.03786878 958.68735175 873.64757021 961.53611416 876.26171875 964.38134766 C880.35089323 968.83199612 884.40540959 973.31212848 888.44140625 977.81103516 C891.07251658 980.72563213 893.7282435 983.6167399 896.38671875 986.50634766 C899.36394515 989.74347856 902.32124841 992.99272622 905.19921875 996.31884766 C908.78109184 1000.45045666 912.50009833 1004.45064692 916.21630859 1008.4609375 C920.01058914 1012.55828694 923.75718322 1016.69545539 927.484375 1020.85400391 C930.05981685 1023.71217008 932.65861571 1026.54841383 935.26171875 1029.38134766 C940.86479311 1035.48117943 946.40384841 1041.63695986 951.93359375 1047.80322266 C956.48407246 1052.87006774 961.06777842 1057.90497254 965.67529297 1062.91992188 C969.29400351 1066.86197967 972.87517577 1070.83634262 976.44921875 1074.81884766 C979.03786878 1077.68735175 981.64757021 1080.53611416 984.26171875 1083.38134766 C988.35089323 1087.83199612 992.40540959 1092.31212848 996.44140625 1096.81103516 C999.07251658 1099.72563213 1001.7282435 1102.6167399 1004.38671875 1105.50634766 C1007.36394515 1108.74347856 1010.32124841 1111.99272622 1013.19921875 1115.31884766 C1015.72716046 1118.23895216 1018.32884193 1121.08100134 1020.96313477 1123.90551758 C1023.57934033 1126.71557725 1026.17292638 1129.54604289 1028.76171875 1132.38134766 C1029.23158203 1132.89294434 1029.70144531 1133.40454102 1030.18554688 1133.93164062 C1058.27677993 1164.79003996 1070.41485377 1204.03276282 1068.92578125 1245.29248047 C1066.88798373 1283.65887068 1049.42204342 1315.69059359 1023.671875 1343.25634766 C1021.14903614 1345.95745289 1018.66546627 1348.69082717 1016.19921875 1351.44384766 C1012.87236531 1355.15712328 1009.51241976 1358.83760512 1006.13671875 1362.50634766 C1003.15947056 1365.74345795 1000.20218854 1368.99272685 997.32421875 1372.31884766 C993.74234566 1376.45045666 990.02333917 1380.45064692 986.30712891 1384.4609375 C982.51534455 1388.55559137 978.77084091 1392.68967773 975.046875 1396.84619141 C972.42898746 1399.75048031 969.78418672 1402.62905541 967.13671875 1405.50634766 C964.15947056 1408.74345795 961.20218854 1411.99272685 958.32421875 1415.31884766 C954.74234566 1419.45045666 951.02333917 1423.45064692 947.30712891 1427.4609375 C943.51534455 1431.55559137 939.77084091 1435.68967773 936.046875 1439.84619141 C933.42898746 1442.75048031 930.78418672 1445.62905541 928.13671875 1448.50634766 C925.15947056 1451.74345795 922.20218854 1454.99272685 919.32421875 1458.31884766 C915.74234566 1462.45045666 912.02333917 1466.45064692 908.30712891 1470.4609375 C904.51534455 1474.55559137 900.77084091 1478.68967773 897.046875 1482.84619141 C894.42898746 1485.75048031 891.78418672 1488.62905541 889.13671875 1491.50634766 C886.15947056 1494.74345795 883.20218854 1497.99272685 880.32421875 1501.31884766 C876.74234566 1505.45045666 873.02333917 1509.45064692 869.30712891 1513.4609375 C865.51534455 1517.55559137 861.77084091 1521.68967773 858.046875 1525.84619141 C855.42898746 1528.75048031 852.78418672 1531.62905541 850.13671875 1534.50634766 C847.15947056 1537.74345795 844.20218854 1540.99272685 841.32421875 1544.31884766 C837.74234566 1548.45045666 834.02333917 1552.45064692 830.30712891 1556.4609375 C826.51534455 1560.55559137 822.77084091 1564.68967773 819.046875 1568.84619141 C816.42898746 1571.75048031 813.78418672 1574.62905541 811.13671875 1577.50634766 C808.15947056 1580.74345795 805.20218854 1583.99272685 802.32421875 1587.31884766 C798.74234566 1591.45045666 795.02333917 1595.45064692 791.30712891 1599.4609375 C787.51534455 1603.55559137 783.77084091 1607.68967773 780.046875 1611.84619141 C777.42898746 1614.75048031 774.78418672 1617.62905541 772.13671875 1620.50634766 C769.15947056 1623.74345795 766.20218854 1626.99272685 763.32421875 1630.31884766 C759.74369563 1634.4488995 756.02592113 1638.44738836 752.31152344 1642.45654297 C747.74575233 1647.3878042 743.24427213 1652.37432734 738.76171875 1657.38134766 C733.49143392 1663.25937704 728.1893969 1669.1063515 722.84814453 1674.91992188 C719.96778046 1678.05765879 717.10655628 1681.21138584 714.26171875 1684.38134766 C710.95170153 1688.06965256 707.61457375 1691.73200531 704.26171875 1695.38134766 C699.3922883 1700.68256688 694.56748851 1706.02239576 689.76171875 1711.38134766 C684.49088859 1717.25889208 679.18940203 1723.10634593 673.84814453 1728.91992188 C670.23191855 1732.85927311 666.6528947 1736.83061031 663.08203125 1740.81103516 C660.45092092 1743.72563213 657.795194 1746.6167399 655.13671875 1749.50634766 C652.15949235 1752.74347856 649.20218909 1755.99272622 646.32421875 1759.31884766 C642.74234566 1763.45045666 639.02333917 1767.45064692 635.30712891 1771.4609375 C631.51284836 1775.55828694 627.76625428 1779.69545539 624.0390625 1783.85400391 C621.46362065 1786.71217008 618.86482179 1789.54841383 616.26171875 1792.38134766 C611.39225125 1797.68253244 606.56748808 1803.02239624 601.76171875 1808.38134766 C596.49088859 1814.25889208 591.18940203 1820.10634593 585.84814453 1825.91992188 C582.23191855 1829.85927311 578.6528947 1833.83061031 575.08203125 1837.81103516 C572.45092092 1840.72563213 569.795194 1843.6167399 567.13671875 1846.50634766 C564.15949235 1849.74347856 561.20218909 1852.99272622 558.32421875 1856.31884766 C554.74234566 1860.45045666 551.02333917 1864.45064692 547.30712891 1868.4609375 C543.51284836 1872.55828694 539.76625428 1876.69545539 536.0390625 1880.85400391 C533.46362065 1883.71217008 530.86482179 1886.54841383 528.26171875 1889.38134766 C523.39225125 1894.68253244 518.56748808 1900.02239624 513.76171875 1905.38134766 C508.49088859 1911.25889208 503.18940203 1917.10634593 497.84814453 1922.91992188 C494.23191855 1926.85927311 490.6528947 1930.83061031 487.08203125 1934.81103516 C484.45092092 1937.72563213 481.795194 1940.6167399 479.13671875 1943.50634766 C476.15949235 1946.74347856 473.20218909 1949.99272622 470.32421875 1953.31884766 C466.74234566 1957.45045666 463.02333917 1961.45064692 459.30712891 1965.4609375 C455.51284836 1969.55828694 451.76625428 1973.69545539 448.0390625 1977.85400391 C445.46362065 1980.71217008 442.86482179 1983.54841383 440.26171875 1986.38134766 C435.39225125 1991.68253244 430.56748808 1997.02239624 425.76171875 2002.38134766 C420.49088859 2008.25889208 415.18940203 2014.10634593 409.84814453 2019.91992188 C406.23191855 2023.85927311 402.6528947 2027.83061031 399.08203125 2031.81103516 C396.45092092 2034.72563213 393.795194 2037.6167399 391.13671875 2040.50634766 C388.15949235 2043.74347856 385.20218909 2046.99272622 382.32421875 2050.31884766 C378.74234566 2054.45045666 375.02333917 2058.45064692 371.30712891 2062.4609375 C367.51284836 2066.55828694 363.76625428 2070.69545539 360.0390625 2074.85400391 C357.46362065 2077.71217008 354.86482179 2080.54841383 352.26171875 2083.38134766 C347.39225125 2088.68253244 342.56748808 2094.02239624 337.76171875 2099.38134766 C332.49088859 2105.25889208 327.18940203 2111.10634593 321.84814453 2116.91992188 C318.23191855 2120.85927311 314.6528947 2124.83061031 311.08203125 2128.81103516 C308.45092092 2131.72563213 305.795194 2134.6167399 303.13671875 2137.50634766 C300.15949235 2140.74347856 297.20218909 2143.99272622 294.32421875 2147.31884766 C290.74234566 2151.45045666 287.02333917 2155.45064692 283.30712891 2159.4609375 C279.51284836 2163.55828694 275.76625428 2167.69545539 272.0390625 2171.85400391 C269.46362065 2174.71217008 266.86482179 2177.54841383 264.26171875 2180.38134766 C259.39225125 2185.68253244 254.56748808 2191.02239624 249.76171875 2196.38134766 C244.49088859 2202.25889208 239.18940203 2208.10634593 233.84814453 2213.91992188 C230.23191855 2217.85927311 226.6528947 2221.83061031 223.08203125 2225.81103516 C220.45092092 2228.72563213 217.795194 2231.6167399 215.13671875 2234.50634766 C212.15949235 2237.74347856 209.20218909 2240.99272622 206.32421875 2244.31884766 C202.74234566 2248.45045666 199.02333917 2252.45064692 195.30712891 2256.4609375 C191.51284836 2260.55828694 187.76625428 2264.69545539 184.0390625 2268.85400391 C181.46362065 2271.71217008 178.86482179 2274.54841383 176.26171875 2277.38134766 C171.39225125 2282.68253244 166.56748808 2288.02239624 161.76171875 2293.38134766 C156.49088859 2299.25889208 151.18940203 2305.10634593 145.84814453 2310.91992188 C142.23191855 2314.85927311 138.6528947 2318.83061031 135.08203125 2322.81103516 C132.45092092 2325.72563213 129.795194 2328.6167399 127.13671875 2331.50634766 C124.15949235 2334.74347856 121.20218909 2337.99272622 118.32421875 2341.31884766 C114.74234566 2345.45045666 111.02333917 2349.45064692 107.30712891 2353.4609375 C103.51284836 2357.55828694 99.76625428 2361.69545539 96.0390625 2365.85400391 C93.46362065 2368.71217008 90.86482179 2371.54841383 88.26171875 2374.38134766 C83.39225125 2379.68253244 78.56748808 2385.02239624 73.76171875 2390.38134766 C68.49088859 2396.25889208 63.18940203 2402.10634593 57.84814453 2407.91992188 C54.23191855 2411.85927311 50.6528947 2415.83061031 47.08203125 2419.81103516 C44.45092092 2422.72563213 41.795194 2425.6167399 39.13671875 2428.50634766 C36.15949235 2431.74347856 33.20218909 2434.99272622 30.32421875 2438.31884766 C26.74312327 2442.44955971 23.02772893 2446.45186622 19.30712891 2450.45654297 C16.21922916 2453.78434507 13.1931126 2457.15570117 10.19921875 2460.56884766 C-15.31103564 2488.81234359 -51.35134389 2504.92351469 -89.15625 2507.30322266 C-129.9202202 2508.33652989 -169.95534618 2495.71911818 -199.97998047 2467.47827148 C-201.40354814 2466.11694019 -202.82099466 2464.749217 -204.23828125 2463.38134766 C-205.09035156 2462.59244141 -205.94242188 2461.80353516 -206.8203125 2460.99072266 C-228.68659427 2440.19192866 -241.72055442 2410.95508252 -246.23828125 2381.38134766 C-246.41085827 2380.30923727 -246.58343529 2379.23712688 -246.76124191 2378.13252831 C-247.57728691 2371.46927842 -247.38314509 2364.74020848 -247.37872314 2358.03823853 C-247.38130948 2356.46848807 -247.38432338 2354.89873828 -247.38772655 2353.32898939 C-247.39576859 2349.02641072 -247.39758456 2344.72384875 -247.39832401 2340.42126346 C-247.4001795 2335.77615842 -247.40772941 2331.13106196 -247.41445923 2326.48596191 C-247.42802411 2316.33265949 -247.43406465 2306.17936102 -247.43846989 2296.02605104 C-247.44123594 2289.68059868 -247.445474 2283.33514784 -247.44997406 2276.9896965 C-247.46216528 2259.40548867 -247.47246426 2241.82128205 -247.47584915 2224.23707008 C-247.4761785 2222.54984246 -247.4761785 2222.54984246 -247.4765145 2220.82852944 C-247.47673278 2219.70108238 -247.47695106 2218.57363531 -247.47717595 2217.41202319 C-247.47761941 2215.12754671 -247.47806597 2212.84307023 -247.47851562 2210.55859375 C-247.47873705 2209.42542451 -247.47895848 2208.29225526 -247.47918662 2207.12474756 C-247.48313144 2188.77892934 -247.50057647 2170.43315092 -247.52387515 2152.08734806 C-247.54762716 2133.23161938 -247.56005279 2114.37591063 -247.56121707 2095.52016675 C-247.56213177 2084.94169215 -247.56783211 2074.36326938 -247.58603668 2063.78480911 C-247.60148983 2054.77365591 -247.60652758 2045.76257057 -247.59829858 2036.75140662 C-247.59441021 2032.15981578 -247.5952322 2027.56836135 -247.60935593 2022.97678757 C-247.62220477 2018.76082236 -247.62080245 2014.54509454 -247.60876521 2010.32912914 C-247.60682701 2008.81626972 -247.60979807 2007.30339282 -247.61860958 2005.79055782 C-247.85294445 1962.78188261 -228.96994611 1926.39098201 -199.69775391 1895.91748047 C-197.94805145 1894.07587326 -196.26935094 1892.18238491 -194.61328125 1890.25634766 C-191.60813089 1886.76551643 -188.49354356 1883.3845899 -185.36328125 1880.00634766 C-180.27053658 1874.50965484 -175.23646378 1868.96432668 -170.23828125 1863.38134766 C-164.96799642 1857.50331827 -159.6659594 1851.65634381 -154.32470703 1845.84277344 C-151.44434296 1842.70503653 -148.58311878 1839.55130947 -145.73828125 1836.38134766 C-142.42826403 1832.69304276 -139.09113625 1829.03069 -135.73828125 1825.38134766 C-130.8688508 1820.08012843 -126.04405101 1814.74029955 -121.23828125 1809.38134766 C-115.96745109 1803.50380323 -110.66596453 1797.65634939 -105.32470703 1791.84277344 C-101.70848105 1787.9034222 -98.1294572 1783.932085 -94.55859375 1779.95166016 C-91.92748342 1777.03706319 -89.2717565 1774.14595541 -86.61328125 1771.25634766 C-83.63605485 1768.01921675 -80.67875159 1764.7699691 -77.80078125 1761.44384766 C-74.21890816 1757.31223865 -70.49990167 1753.31204839 -66.78369141 1749.30175781 C-62.98941086 1745.20440837 -59.24281678 1741.06723992 -55.515625 1736.90869141 C-52.94018315 1734.05052524 -50.34138429 1731.21428149 -47.73828125 1728.38134766 C-42.86881375 1723.08016287 -38.04405058 1717.74029907 -33.23828125 1712.38134766 C-27.96745109 1706.50380323 -22.66596453 1700.65634939 -17.32470703 1694.84277344 C-14.44434296 1691.70503653 -11.58311878 1688.55130947 -8.73828125 1685.38134766 C-5.42826403 1681.69304276 -2.09113625 1678.03069 1.26171875 1674.38134766 C6.1311492 1669.08012843 10.95594899 1663.74029955 15.76171875 1658.38134766 C21.03254891 1652.50380323 26.33403547 1646.65634939 31.67529297 1640.84277344 C35.29151895 1636.9034222 38.8705428 1632.932085 42.44140625 1628.95166016 C45.07251658 1626.03706319 47.7282435 1623.14595541 50.38671875 1620.25634766 C53.36394515 1617.01921675 56.32124841 1613.7699691 59.19921875 1610.44384766 C62.78109184 1606.31223865 66.50009833 1602.31204839 70.21630859 1598.30175781 C74.01058914 1594.20440837 77.75718322 1590.06723992 81.484375 1585.90869141 C84.05981685 1583.05052524 86.65861571 1580.21428149 89.26171875 1577.38134766 C94.13118625 1572.08016287 98.95594942 1566.74029907 103.76171875 1561.38134766 C109.03254891 1555.50380323 114.33403547 1549.65634939 119.67529297 1543.84277344 C123.29151895 1539.9034222 126.8705428 1535.932085 130.44140625 1531.95166016 C133.07251658 1529.03706319 135.7282435 1526.14595541 138.38671875 1523.25634766 C141.36394515 1520.01921675 144.32124841 1516.7699691 147.19921875 1513.44384766 C150.78109184 1509.31223865 154.50009833 1505.31204839 158.21630859 1501.30175781 C162.01058914 1497.20440837 165.75718322 1493.06723992 169.484375 1488.90869141 C172.05981685 1486.05052524 174.65861571 1483.21428149 177.26171875 1480.38134766 C182.13118625 1475.08016287 186.95594942 1469.74029907 191.76171875 1464.38134766 C197.03254891 1458.50380323 202.33403547 1452.65634939 207.67529297 1446.84277344 C210.55565704 1443.70503653 213.41688122 1440.55130947 216.26171875 1437.38134766 C219.57173597 1433.69304276 222.90886375 1430.03069 226.26171875 1426.38134766 C231.1311492 1421.08012843 235.95594899 1415.74029955 240.76171875 1410.38134766 C246.03254891 1404.50380323 251.33403547 1398.65634939 256.67529297 1392.84277344 C260.29151895 1388.9034222 263.8705428 1384.932085 267.44140625 1380.95166016 C270.07251658 1378.03706319 272.7282435 1375.14595541 275.38671875 1372.25634766 C278.36394515 1369.01921675 281.32124841 1365.7699691 284.19921875 1362.44384766 C287.78109184 1358.31223865 291.50009833 1354.31204839 295.21630859 1350.30175781 C299.01058914 1346.20440837 302.75718322 1342.06723992 306.484375 1337.90869141 C309.05981685 1335.05052524 311.65861571 1332.21428149 314.26171875 1329.38134766 C319.13118625 1324.08016287 323.95594942 1318.74029907 328.76171875 1313.38134766 C334.03254891 1307.50380323 339.33403547 1301.65634939 344.67529297 1295.84277344 C348.29151895 1291.9034222 351.8705428 1287.932085 355.44140625 1283.95166016 C358.07251658 1281.03706319 360.7282435 1278.14595541 363.38671875 1275.25634766 C366.36394515 1272.01921675 369.32124841 1268.7699691 372.19921875 1265.44384766 C375.7790669 1261.31457437 379.4962261 1257.31693688 383.2097168 1253.30834961 C390.5029727 1245.43062868 397.6405116 1237.41453501 404.76171875 1229.38134766 C402.83799682 1225.94358531 400.86416176 1223.27866852 398.01171875 1220.56884766 C394.7652266 1217.40469408 391.75601985 1214.13985054 388.80078125 1210.70556641 C386.2141853 1207.75724344 383.55335161 1204.88220159 380.88671875 1202.00634766 C376.56404328 1197.3421093 372.2835507 1192.64440428 368.0390625 1187.90869141 C365.46362065 1185.05052524 362.86482179 1182.21428149 360.26171875 1179.38134766 C354.65864439 1173.28151588 349.11958909 1167.12573545 343.58984375 1160.95947266 C339.03936504 1155.89262757 334.45565908 1150.85772277 329.84814453 1145.84277344 C326.23191855 1141.9034222 322.6528947 1137.932085 319.08203125 1133.95166016 C316.45092092 1131.03706319 313.795194 1128.14595541 311.13671875 1125.25634766 C308.15949235 1122.01921675 305.20218909 1118.7699691 302.32421875 1115.44384766 C298.74234566 1111.31223865 295.02333917 1107.31204839 291.30712891 1103.30175781 C287.51534455 1099.20710394 283.77084091 1095.07301758 280.046875 1090.91650391 C277.42898746 1088.012215 274.78418672 1085.1336399 272.13671875 1082.25634766 C269.15947056 1079.01923737 266.20218854 1075.76996846 263.32421875 1072.44384766 C259.74234566 1068.31223865 256.02333917 1064.31204839 252.30712891 1060.30175781 C248.51534455 1056.20710394 244.77084091 1052.07301758 241.046875 1047.91650391 C238.42898746 1045.012215 235.78418672 1042.1336399 233.13671875 1039.25634766 C230.15947056 1036.01923737 227.20218854 1032.76996846 224.32421875 1029.44384766 C220.74234566 1025.31223865 217.02333917 1021.31204839 213.30712891 1017.30175781 C209.51534455 1013.20710394 205.77084091 1009.07301758 202.046875 1004.91650391 C199.42898746 1002.012215 196.78418672 999.1336399 194.13671875 996.25634766 C191.15947056 993.01923737 188.20218854 989.76996846 185.32421875 986.44384766 C181.74234566 982.31223865 178.02333917 978.31204839 174.30712891 974.30175781 C170.51534455 970.20710394 166.77084091 966.07301758 163.046875 961.91650391 C160.42898746 959.012215 157.78418672 956.1336399 155.13671875 953.25634766 C152.15947056 950.01923737 149.20218854 946.76996846 146.32421875 943.44384766 C142.74234566 939.31223865 139.02333917 935.31204839 135.30712891 931.30175781 C131.51284836 927.20440837 127.76625428 923.06723992 124.0390625 918.90869141 C121.46362065 916.05052524 118.86482179 913.21428149 116.26171875 910.38134766 C110.65864439 904.28151588 105.11958909 898.12573545 99.58984375 891.95947266 C95.03936504 886.89262757 90.45565908 881.85772277 85.84814453 876.84277344 C82.23191855 872.9034222 78.6528947 868.932085 75.08203125 864.95166016 C72.45092092 862.03706319 69.795194 859.14595541 67.13671875 856.25634766 C64.15949235 853.01921675 61.20218909 849.7699691 58.32421875 846.44384766 C54.74234566 842.31223865 51.02333917 838.31204839 47.30712891 834.30175781 C43.51534455 830.20710394 39.77084091 826.07301758 36.046875 821.91650391 C33.42898746 819.012215 30.78418672 816.1336399 28.13671875 813.25634766 C25.15947056 810.01923737 22.20218854 806.76996846 19.32421875 803.44384766 C15.74234566 799.31223865 12.02333917 795.31204839 8.30712891 791.30175781 C4.51534455 787.20710394 0.77084091 783.07301758 -2.953125 778.91650391 C-5.57101254 776.012215 -8.21581328 773.1336399 -10.86328125 770.25634766 C-13.84052944 767.01923737 -16.79781146 763.76996846 -19.67578125 760.44384766 C-23.25765434 756.31223865 -26.97666083 752.31204839 -30.69287109 748.30175781 C-34.48465545 744.20710394 -38.22915909 740.07301758 -41.953125 735.91650391 C-44.57101254 733.012215 -47.21581328 730.1336399 -49.86328125 727.25634766 C-52.84052944 724.01923737 -55.79781146 720.76996846 -58.67578125 717.44384766 C-62.25765434 713.31223865 -65.97666083 709.31204839 -69.69287109 705.30175781 C-73.48465545 701.20710394 -77.22915909 697.07301758 -80.953125 692.91650391 C-83.57101254 690.012215 -86.21581328 687.1336399 -88.86328125 684.25634766 C-91.84052944 681.01923737 -94.79781146 677.76996846 -97.67578125 674.44384766 C-101.25765434 670.31223865 -104.97666083 666.31204839 -108.69287109 662.30175781 C-112.48465545 658.20710394 -116.22915909 654.07301758 -119.953125 649.91650391 C-122.57101254 647.012215 -125.21581328 644.1336399 -127.86328125 641.25634766 C-130.84052944 638.01923737 -133.79781146 634.76996846 -136.67578125 631.44384766 C-140.25765434 627.31223865 -143.97666083 623.31204839 -147.69287109 619.30175781 C-151.48465545 615.20710394 -155.22915909 611.07301758 -158.953125 606.91650391 C-161.57101254 604.012215 -164.21581328 601.1336399 -166.86328125 598.25634766 C-169.84052944 595.01923737 -172.79781146 591.76996846 -175.67578125 588.44384766 C-179.25765434 584.31223865 -182.97666083 580.31204839 -186.69287109 576.30175781 C-190.48974413 572.2016088 -194.24137427 568.06403236 -197.96484375 563.89697266 C-200.04194256 561.59860215 -202.15318622 559.3357608 -204.27172852 557.07568359 C-221.10538848 539.00972128 -234.21276335 518.19965616 -241.55078125 494.50634766 C-241.78112061 493.77778564 -242.01145996 493.04922363 -242.2487793 492.29858398 C-247.979367 472.62111272 -247.67663286 452.62633159 -247.63045526 432.34280252 C-247.6235998 427.87918673 -247.6341778 423.41560468 -247.64239502 418.95199585 C-247.655666 410.23254494 -247.65288441 401.51317194 -247.6441571 392.7937181 C-247.63735465 385.70098343 -247.63647484 378.60827045 -247.63972855 371.51553345 C-247.64018825 370.50226055 -247.64064794 369.48898766 -247.64112157 368.44500953 C-247.64208085 366.38593157 -247.64305349 364.32685361 -247.64403935 362.26777565 C-247.6525738 343.0044371 -247.64278973 323.74114153 -247.62663825 304.47781003 C-247.61323685 287.98437138 -247.61556549 271.4909961 -247.62939453 254.99755859 C-247.64548481 235.79850187 -247.65175001 216.59948272 -247.64255774 197.40042019 C-247.64160219 195.34933409 -247.64065908 193.29824798 -247.63972855 191.24716187 C-247.63926572 190.23824758 -247.63880289 189.2293333 -247.63832604 188.18984586 C-247.63574648 181.11374744 -247.64008473 174.03767306 -247.64716721 166.96157837 C-247.65562083 158.32656857 -247.65322145 149.69164047 -247.63732497 141.05663991 C-247.62949389 136.65927976 -247.62626138 132.26205535 -247.63627243 127.8646965 C-247.7069984 94.01598807 -247.7069984 94.01598807 -244.23828125 78.38134766 C-244.01792898 77.37493729 -243.79757671 76.36852692 -243.5705471 75.33161926 C-243.04344106 73.06240539 -242.42847107 70.85591381 -241.73828125 68.63134766 C-241.49110352 67.82681152 -241.24392578 67.02227539 -240.98925781 66.19335938 C-235.73729798 50.01373517 -228.00949168 34.57123121 -217.23828125 21.38134766 C-216.76245605 20.7903125 -216.28663086 20.19927734 -215.79638672 19.59033203 C-189.88337113 -12.37271032 -152.99456735 -31.6877094 -112.17578125 -36.24365234 C-71.34888243 -39.43779094 -30.68645123 -27.74048279 0 0 Z " fill="#141414" transform="translate(1463.23828125,2108.61865234375)"/>
<path d="M0 0 C0.969375 0.78503906 1.93875 1.57007813 2.9375 2.37890625 C11.1837936 9.13336346 18.76428381 16.54920053 26.3125 24.0625 C26.82428802 24.56911163 27.33607605 25.07572327 27.8633728 25.59768677 C34.71463562 32.39427905 40.99664067 39.42858219 47 47 C48.0003351 48.20869362 49.00376423 49.41484051 50.01171875 50.6171875 C73.98523052 79.61881869 92.18115465 113.73263352 105 149 C105.47131348 150.28028076 105.47131348 150.28028076 105.95214844 151.58642578 C135.80037659 233.50181394 131.09323601 328.59566824 94.52029419 407.59921265 C93.64220191 409.46347884 92.7430777 411.31611929 91.83764648 413.16723633 C91.30598877 414.27736084 90.77433105 415.38748535 90.2265625 416.53125 C89.74783691 417.49611328 89.26911133 418.46097656 88.77587891 419.45507812 C87.74116978 421.91528315 87.74116978 421.91528315 88.73815727 423.93025494 C90.09930937 426.16289279 91.56426238 427.8131398 93.41360474 429.6608429 C94.11999588 430.37142853 94.82638702 431.08201416 95.55418396 431.81413269 C96.32923782 432.58356705 97.10429169 433.3530014 97.90283203 434.14575195 C98.71932724 434.96414551 99.53582245 435.78253906 100.37705994 436.62573242 C103.08244626 439.33482842 105.79497728 442.03664601 108.5078125 444.73828125 C110.39187577 446.62115217 112.27559168 448.50436482 114.15890503 450.38798523 C118.11164967 454.3397934 122.06824523 458.28771227 126.02734375 462.2331543 C130.58848669 466.77862087 135.14443204 471.32924286 139.69737542 475.88292152 C144.0902774 480.27643688 148.48604766 484.6670704 152.88338852 489.05614281 C154.74740802 490.91698998 156.61083115 492.77843474 158.47363663 494.64049721 C161.0868599 497.25153867 163.7033591 499.8592526 166.32080078 502.46606445 C167.4651635 503.61110695 167.4651635 503.61110695 168.63264465 504.77928162 C172.00679897 508.1335403 175.40833016 511.40081617 179.01168823 514.50871277 C183.37534394 518.2737019 187.43246802 522.30662614 191.4921875 526.39453125 C192.2998053 527.20360931 193.1074231 528.01268738 193.93951416 528.84628296 C195.68005535 530.5906082 197.4194411 532.336087 199.15777588 534.08261108 C201.9138214 536.85150234 204.67305047 539.61718583 207.43310547 542.38208008 C213.78859459 548.74954908 220.13903107 555.1220493 226.4894104 561.49461365 C232.78019779 567.80726421 239.07299509 574.11789457 245.36920166 580.42514038 C248.0787678 583.14115772 250.78528828 585.86018485 253.49169922 588.5793457 C255.16358772 590.254869 256.83561806 591.93025079 258.5078125 593.60546875 C259.25194397 594.35476654 259.99607544 595.10406433 260.76275635 595.87606812 C264.72497541 599.83868268 268.78811142 603.59861535 273.03089905 607.25772285 C276.45509305 610.28747861 279.66133708 613.53081621 282.88476562 616.77124023 C283.6272052 617.51353378 284.36964478 618.25582733 285.13458252 619.02061462 C287.56085277 621.44757535 289.98357275 623.87804682 292.40625 626.30859375 C294.09853577 628.00274677 295.79104407 629.69667753 297.48376465 631.39039612 C301.91807358 635.82850599 306.34936997 640.26961179 310.7800293 644.71136475 C315.30985792 649.25145978 319.8425519 653.78869216 324.375 658.32617188 C333.25279427 667.2146607 342.12750395 676.10622264 351 685 C353.99629497 683.82165506 356.79271367 682.63841154 359.546875 680.96875 C409.32124901 651.5984416 469.8563159 644.69332052 525.63964844 658.39624023 C563.37591712 668.26595232 596.51249224 687.78531875 624.57177734 714.63476562 C625.84762576 715.85434585 627.13589562 717.0609009 628.42578125 718.265625 C635.02713143 724.59729303 640.51122766 731.7119543 646 739 C646.41894531 739.5475293 646.83789062 740.09505859 647.26953125 740.65917969 C669.90688065 770.35722616 683.95697005 806.08171138 689 843 C689.10094971 843.72453369 689.20189941 844.44906738 689.3059082 845.19555664 C694.77105293 890.91161481 685.85324349 937.57688211 664 978 C663.68063477 978.5986084 663.36126953 979.1972168 663.03222656 979.81396484 C653.20925634 998.1086236 640.1843831 1013.92638187 626 1029 C625.38382813 1029.65871094 624.76765625 1030.31742188 624.1328125 1030.99609375 C619.16100523 1036.14631516 613.5964743 1040.55208317 608 1045 C607.04480469 1045.78375 606.08960937 1046.5675 605.10546875 1047.375 C560.93259846 1082.7586599 501.94094368 1097.96676665 446 1092.25 C422.06169287 1089.44404459 398.86773886 1083.10912674 377 1073 C376.30036133 1072.67773438 375.60072266 1072.35546875 374.87988281 1072.0234375 C343.53333369 1057.39802056 314.78431828 1034.62360312 294.25146484 1006.70019531 C293.00267559 1005.00363496 291.73112897 1003.32604025 290.45703125 1001.6484375 C283.69658218 992.61318867 278.20517197 982.99831349 273 973 C272.64695801 972.33194336 272.29391602 971.66388672 271.93017578 970.97558594 C249.53874833 928.12210247 243.17086585 875.4014592 253.4140625 828.2421875 C254.60101225 822.27009166 254.60101225 822.27009166 252.53527832 816.80702209 C251.84881226 816.13086349 251.16234619 815.4547049 250.45507812 814.75805664 C249.68006958 813.98027359 248.90506104 813.20249054 248.10656738 812.40113831 C246.83178528 811.16810219 246.83178528 811.16810219 245.53125 809.91015625 C244.22794739 808.61603065 244.22794739 808.61603065 242.89831543 807.29576111 C240.11261385 804.53701542 237.30653803 801.80002874 234.5 799.0625 C232.63930894 797.22333572 230.77991817 795.38285493 228.921875 793.54101562 C225.4821658 790.14336036 222.04028243 786.74812889 218.58007812 783.37133789 C217.88724731 782.6943837 217.1944165 782.0174295 216.48059082 781.31996155 C214.43778153 779.40943324 212.36212046 777.57693338 210.24450684 775.75144958 C205.80730284 771.8868588 201.65277108 767.77920475 197.5078125 763.60546875 C196.7001947 762.79639069 195.8925769 761.98731262 195.06048584 761.15371704 C193.31994465 759.4093918 191.5805589 757.663913 189.84222412 755.91738892 C187.0861786 753.14849766 184.32694953 750.38281417 181.56689453 747.61791992 C175.21140541 741.25045092 168.86096893 734.8779507 162.5105896 728.50538635 C156.21980221 722.19273579 149.92700491 715.88210543 143.63079834 709.57485962 C140.9212322 706.85884228 138.21471172 704.13981515 135.50830078 701.4206543 C133.83641228 699.745131 132.16438194 698.06974921 130.4921875 696.39453125 C129.74805603 695.64523346 129.00392456 694.89593567 128.23724365 694.12393188 C124.91362955 690.79998602 121.56007497 687.57058305 118 684.5 C113.6318688 680.73246428 109.57108846 676.69695503 105.5078125 672.60546875 C104.7001947 671.79639069 103.8925769 670.98731262 103.06048584 670.15371704 C101.31994465 668.4093918 99.5805589 666.663913 97.84222412 664.91738892 C95.0861786 662.14849766 92.32694953 659.38281417 89.56689453 656.61791992 C83.21140541 650.25045092 76.86096893 643.8779507 70.5105896 637.50538635 C64.21980221 631.19273579 57.92700491 624.88210543 51.63079834 618.57485962 C48.9212322 615.85884228 46.21471172 613.13981515 43.50830078 610.4206543 C41.83641228 608.745131 40.16438194 607.06974921 38.4921875 605.39453125 C37.74805603 604.64523346 37.00392456 603.89593567 36.23724365 603.12393188 C32.21331659 599.09960316 28.08883229 595.26767155 23.77870178 591.55187798 C21.50763354 589.57042115 19.36394386 587.48395588 17.23632812 585.34985352 C16.39606079 584.50951065 15.55579346 583.66916779 14.69006348 582.80335999 C13.37395081 581.47950539 13.37395081 581.47950539 12.03125 580.12890625 C11.11033569 579.206577 10.18942139 578.28424774 9.24060059 577.33396912 C6.81852446 574.90811523 4.39946921 572.47927148 1.9810791 570.04974365 C-0.49773837 567.56060884 -2.97946797 565.07438105 -5.4609375 562.58789062 C-10.31010924 557.72806542 -15.15608863 552.86506822 -20 548 C-23.13681435 549.22617581 -25.92704275 550.45792853 -28.73046875 552.328125 C-29.43695557 552.790979 -30.14344238 553.25383301 -30.87133789 553.73071289 C-31.63567139 554.23207764 -32.40000488 554.73344238 -33.1875 555.25 C-109.70236735 604.27683186 -202.90792333 620.28015361 -291.60546875 601.66796875 C-327.87430222 593.68420395 -367.97850314 580.76243917 -398.26586914 558.6809082 C-400.03131061 557.75822573 -400.03131061 557.75822573 -401.90701403 558.7715989 C-404.00658536 560.00386503 -405.50509384 561.25568577 -407.22190642 562.97350943 C-407.84009791 563.58720633 -408.45828939 564.20090322 -409.09521395 564.833197 C-409.76655271 565.50978978 -410.43789147 566.18638257 -411.12957382 566.88347816 C-412.21283511 567.96327792 -412.21283511 567.96327792 -413.31798047 569.06489182 C-415.75532336 571.49690851 -418.18542195 573.9360393 -420.61566162 576.37515259 C-422.37172686 578.1303463 -424.12823128 579.88510072 -425.88513875 581.63945138 C-429.7135446 585.4643082 -433.53880808 589.29226649 -437.36137199 593.12296104 C-443.04542152 598.81906706 -448.73518128 604.5094432 -454.42614009 610.19864516 C-463.99847946 619.7683549 -473.5661513 629.34271837 -483.13118744 638.91972733 C-492.60411662 648.40448367 -502.07910485 657.88717523 -511.55686188 667.36710739 C-512.1457843 667.95616729 -512.73470672 668.5452272 -513.34147528 669.1521374 C-516.33222916 672.14356793 -519.32301999 675.13496153 -522.31382504 678.12634091 C-543.50700071 699.3237193 -564.69553398 720.52573259 -585.88134766 741.73046875 C-606.46526457 762.33274935 -627.05127742 782.93293196 -647.64013672 803.53027344 C-648.27458438 804.16498415 -648.90903203 804.79969486 -649.56270538 805.45363923 C-655.93399298 811.82756383 -662.30532327 818.20144575 -668.67668484 824.57529641 C-681.65630636 837.55999058 -694.63564288 850.54496961 -707.61480713 863.53012085 C-708.21159076 864.12717906 -708.80837439 864.72423727 -709.42324238 865.33938816 C-749.28693556 905.22148795 -789.14396363 945.11024859 -829 985 C-828.52612779 986.75276633 -828.05113919 988.50523087 -827.57568359 990.25756836 C-827.31129486 991.23350449 -827.04690613 992.20944061 -826.77450562 993.21495056 C-826.15211076 995.45302398 -825.49720631 997.66707979 -824.7890625 999.87890625 C-822.06735045 1008.49157224 -820.03309095 1017.13219022 -818.3125 1026 C-818.11027832 1027.03068604 -817.90805664 1028.06137207 -817.69970703 1029.12329102 C-814.56535284 1045.83506209 -813.62428197 1062.08558656 -813.6875 1079.0625 C-813.68965515 1080.10313599 -813.6918103 1081.14377197 -813.69403076 1082.21594238 C-813.74436605 1097.35435164 -814.0977572 1112.09916985 -817 1127 C-817.18804199 1128.0219043 -817.37608398 1129.04380859 -817.56982422 1130.09667969 C-829.75655249 1195.03439325 -864.89428048 1257.63965316 -918 1298 C-919.16320825 1298.91479543 -920.32593599 1299.83020206 -921.48828125 1300.74609375 C-936.27049624 1312.25305967 -952.19005016 1322.17210147 -969.15429688 1330.12792969 C-970.96251353 1330.98228814 -972.75496907 1331.86975339 -974.546875 1332.7578125 C-1001.76806379 1346.01179744 -1031.05662719 1353.25873911 -1061 1357 C-1061.75128174 1357.103125 -1062.50256348 1357.20625 -1063.27661133 1357.3125 C-1072.31783312 1358.41281168 -1081.46894139 1358.24396837 -1090.5625 1358.25 C-1091.93267776 1358.25101212 -1091.93267776 1358.25101212 -1093.33053589 1358.25204468 C-1108.07045962 1358.23478311 -1122.45718413 1357.58372364 -1137 1355 C-1138.00224609 1354.82307617 -1139.00449219 1354.64615234 -1140.03710938 1354.46386719 C-1153.97770764 1351.9240288 -1167.55726671 1348.47166448 -1181 1344 C-1181.76022461 1343.75056641 -1182.52044922 1343.50113281 -1183.30371094 1343.24414062 C-1212.04547045 1333.67585269 -1239.34744516 1318.89454091 -1263 1300 C-1263.9796875 1299.23171875 -1264.959375 1298.4634375 -1265.96875 1297.671875 C-1281.34252885 1285.39052293 -1295.90959566 1271.53636649 -1308 1256 C-1309.00776145 1254.73303231 -1310.01557757 1253.4661081 -1311.0234375 1252.19921875 C-1330.09272962 1228.00195336 -1344.76578897 1201.05832585 -1355 1172 C-1355.4343335 1170.76757568 -1355.4343335 1170.76757568 -1355.87744141 1169.51025391 C-1362.43746225 1150.55607948 -1366.6134955 1130.90130054 -1369 1111 C-1369.14356934 1109.83500977 -1369.14356934 1109.83500977 -1369.29003906 1108.64648438 C-1370.28282444 1099.41607121 -1370.24364946 1090.14807884 -1370.25 1080.875 C-1370.25067474 1079.98772217 -1370.25134949 1079.10044434 -1370.25204468 1078.1862793 C-1370.19773692 1033.0874905 -1359.3790806 988.80105472 -1338 949 C-1337.62939453 948.29359375 -1337.25878906 947.5871875 -1336.87695312 946.859375 C-1330.77576281 935.24579476 -1323.85739973 924.50064864 -1316 914 C-1315.5344873 913.37609375 -1315.06897461 912.7521875 -1314.58935547 912.109375 C-1307.91934149 903.23813794 -1300.71226607 894.97653561 -1293 887 C-1292.36868164 886.34676758 -1291.73736328 885.69353516 -1291.08691406 885.02050781 C-1283.11828118 876.8203408 -1275.10593541 868.94730767 -1266 862 C-1264.83567008 861.08367303 -1263.67162636 860.16698232 -1262.5078125 859.25 C-1226.28557423 831.06165054 -1184.00212745 813.37248883 -1139 805 C-1138.08444336 804.82210937 -1137.16888672 804.64421875 -1136.22558594 804.4609375 C-1107.45939566 799.09720835 -1073.6924345 799.36024619 -1045 805 C-1043.9181543 805.20931152 -1042.83630859 805.41862305 -1041.72167969 805.63427734 C-1029.16333277 808.12444633 -1016.78149712 810.96628226 -1004.7331543 815.34692383 C-1000.89719113 816.82824238 -1000.89719113 816.82824238 -996.98547601 816.25058234 C-994.93252893 814.95750232 -993.35296181 813.60785485 -991.6347276 811.8969326 C-990.98448848 811.25426278 -990.33424937 810.61159295 -989.66430604 809.94944829 C-988.95709999 809.24041838 -988.24989394 808.53138847 -987.5212574 807.8008728 C-986.76133979 807.04685804 -986.00142219 806.29284328 -985.21847677 805.51597959 C-982.65277401 802.96771216 -980.09427763 800.41232854 -977.53567505 797.85693359 C-975.68742067 796.01813746 -973.8387458 794.1797639 -971.98968494 792.34177876 C-967.42851714 787.80625224 -962.87279672 783.26528972 -958.3187365 778.72262789 C-952.86523129 773.28323557 -947.4060416 767.84956173 -941.94686888 762.41585865 C-928.12638437 748.65908437 -914.31791411 734.89027332 -900.51165944 721.11922026 C-896.77350743 717.39060297 -893.03511441 713.66222738 -889.29670095 709.93387222 C-866.09929305 686.79854504 -842.90630052 663.65879676 -819.7231617 640.50917053 C-814.35197037 635.14585388 -808.98070461 629.78261177 -803.609375 624.41943359 C-802.94205034 623.75311227 -802.27472569 623.08679095 -801.58717907 622.40027808 C-779.93839493 600.78434877 -758.26768038 579.19057573 -736.58451051 557.60914332 C-714.30050125 535.42950091 -692.0359222 513.2305486 -669.79676511 491.00592901 C-666.65797085 487.86919204 -663.51896903 484.73266287 -660.37984848 481.59625244 C-659.76203137 480.97895141 -659.14421426 480.36165037 -658.50767542 479.72564325 C-648.55185745 469.77922674 -638.57593067 459.85321622 -628.59255848 449.9344653 C-618.56522111 439.9710924 -608.55998828 429.98595068 -598.57704778 419.9780907 C-592.64113006 414.02866708 -586.68899364 408.09661263 -580.71257356 402.18787049 C-576.25842701 397.7805135 -571.83599588 393.34259753 -567.42535971 388.89172101 C-565.63118031 387.09105207 -563.82668787 385.3005918 -562.01132526 383.521281 C-559.55354065 381.10939474 -557.13527675 378.6638114 -554.72369576 376.20585632 C-554.00244271 375.51555574 -553.28118966 374.82525516 -552.53808045 374.11403638 C-548.89193831 370.3560798 -548.89193831 370.3560798 -548.01268242 365.3745991 C-548.50655452 362.8251833 -549.16815675 360.45735619 -550 358 C-550.2357373 356.99372559 -550.47147461 355.98745117 -550.71435547 354.95068359 C-550.92979004 354.10844238 -551.14522461 353.26620117 -551.3671875 352.3984375 C-554.00040687 341.90382344 -556.44632693 331.42217313 -558.25 320.75 C-558.40065918 319.87907715 -558.55131836 319.0081543 -558.70654297 318.11083984 C-561.47074664 300.98770189 -562.38387143 283.82207432 -562.3125 266.5 C-562.31034485 265.5471109 -562.3081897 264.5942218 -562.30596924 263.61245728 C-562.03347165 188.00855387 -536.98039928 113.5025851 -490 54 C-489.28714844 53.09507812 -488.57429688 52.19015625 -487.83984375 51.2578125 C-482.98190643 45.20895228 -477.84451386 39.47161913 -472.5703125 33.7890625 C-470.41922571 31.4549045 -468.32074342 29.09253383 -466.25 26.6875 C-461.36725339 21.07408109 -456.10435721 15.9683947 -450.4609375 11.125 C-448.55159787 9.47630038 -446.66653072 7.80937591 -444.7890625 6.125 C-435.33421914 -2.29781879 -425.3938982 -9.7782501 -415 -17 C-414.37689941 -17.43908691 -413.75379883 -17.87817383 -413.11181641 -18.33056641 C-334.74701633 -73.43316794 -234.13979942 -90.28203262 0 0 Z " fill="#141414" transform="translate(1820,1144)"/>
</svg>
