<svg width="70" height="70" viewBox="0 0 70 70" fill="none" xmlns="http://www.w3.org/2000/svg">
<path d="M35.2382 25.2051C38.5059 25.2051 38.893 25.2176 40.1835 25.2764C41.3767 25.3309 42.0247 25.5303 42.456 25.6978C43.0272 25.9198 43.4349 26.1851 43.8631 26.6133C44.2913 27.0415 44.5566 27.4493 44.7786 28.0205C44.9462 28.4518 45.1455 29.0998 45.2 30.2929C45.2589 31.5834 45.2713 31.9705 45.2713 35.2382C45.2713 38.506 45.2589 38.893 45.2 40.1835C45.1455 41.3767 44.9462 42.0247 44.7786 42.456C44.5566 43.0272 44.2913 43.4349 43.8631 43.8632C43.4349 44.2914 43.0272 44.5566 42.456 44.7786C42.0247 44.9462 41.3767 45.1456 40.1835 45.2C38.8932 45.2589 38.5061 45.2713 35.2382 45.2713C31.9702 45.2713 31.5832 45.2589 30.2929 45.2C29.0997 45.1456 28.4517 44.9462 28.0205 44.7786C27.4492 44.5566 27.0415 44.2914 26.6133 43.8632C26.185 43.4349 25.9198 43.0272 25.6978 42.456C25.5302 42.0247 25.3309 41.3767 25.2764 40.1836C25.2175 38.893 25.2051 38.506 25.2051 35.2382C25.2051 31.9705 25.2175 31.5834 25.2764 30.293C25.3309 29.0998 25.5302 28.4518 25.6978 28.0205C25.9198 27.4493 26.185 27.0415 26.6133 26.6133C27.0415 26.1851 27.4492 25.9198 28.0205 25.6978C28.4517 25.5303 29.0997 25.3309 30.2929 25.2764C31.5834 25.2176 31.9704 25.2051 35.2382 25.2051ZM35.2382 23C31.9145 23 31.4977 23.0141 30.1924 23.0736C28.8897 23.1331 28.0002 23.34 27.2217 23.6425C26.4169 23.9553 25.7344 24.3737 25.054 25.0541C24.3737 25.7345 23.9552 26.4169 23.6425 27.2217C23.3399 28.0002 23.1331 28.8898 23.0736 30.1925C23.014 31.4977 23 31.9145 23 35.2382C23 38.562 23.014 38.9787 23.0736 40.284C23.1331 41.5867 23.3399 42.4763 23.6425 43.2548C23.9552 44.0595 24.3737 44.742 25.054 45.4224C25.7344 46.1027 26.4169 46.5212 27.2217 46.834C28.0002 47.1365 28.8897 47.3434 30.1924 47.4028C31.4977 47.4624 31.9145 47.4764 35.2382 47.4764C38.5619 47.4764 38.9787 47.4624 40.284 47.4028C41.5866 47.3434 42.4762 47.1365 43.2547 46.834C44.0595 46.5212 44.742 46.1027 45.4223 45.4224C46.1027 44.742 46.5212 44.0595 46.8339 43.2548C47.1365 42.4763 47.3433 41.5867 47.4028 40.284C47.4623 38.9787 47.4764 38.562 47.4764 35.2382C47.4764 31.9145 47.4623 31.4977 47.4028 30.1925C47.3433 28.8898 47.1365 28.0002 46.8339 27.2217C46.5212 26.4169 46.1027 25.7345 45.4223 25.0541C44.742 24.3737 44.0595 23.9553 43.2547 23.6425C42.4762 23.34 41.5866 23.1331 40.284 23.0736C38.9787 23.0141 38.5619 23 35.2382 23ZM35.2382 28.9537C31.7674 28.9537 28.9537 31.7674 28.9537 35.2382C28.9537 38.7091 31.7674 41.5227 35.2382 41.5227C38.709 41.5227 41.5227 38.7091 41.5227 35.2382C41.5227 31.7674 38.709 28.9537 35.2382 28.9537ZM35.2382 39.3177C32.9852 39.3177 31.1588 37.4912 31.1588 35.2382C31.1588 32.9853 32.9852 31.1588 35.2382 31.1588C37.4912 31.1588 39.3176 32.9853 39.3176 35.2382C39.3176 37.4912 37.4912 39.3177 35.2382 39.3177ZM43.2396 28.7054C43.2396 29.5165 42.5821 30.1741 41.771 30.1741C40.9599 30.1741 40.3024 29.5165 40.3024 28.7054C40.3024 27.8944 40.9599 27.2369 41.771 27.2369C42.5821 27.2369 43.2396 27.8944 43.2396 28.7054Z" fill="#CBCFFF"/>
</svg>
