<svg width="70" height="70" viewBox="0 0 70 70" fill="none" xmlns="http://www.w3.org/2000/svg">
<path d="M40.3861 34.3444C40.2806 34.2938 40.1736 34.2452 40.0651 34.1986C39.8761 30.7175 37.974 28.7246 34.7801 28.7042C34.7656 28.7041 34.7512 28.7041 34.7367 28.7041C32.8264 28.7041 31.2375 29.5195 30.2596 31.0034L32.0162 32.2083C32.7467 31.1 33.8932 30.8637 34.7376 30.8637C34.7473 30.8637 34.7571 30.8637 34.7668 30.8638C35.8184 30.8705 36.612 31.1762 37.1256 31.7725C37.4994 32.2066 37.7494 32.8065 37.8732 33.5636C36.9408 33.4051 35.9324 33.3564 34.8544 33.4182C31.8178 33.5931 29.8656 35.3642 29.9967 37.8251C30.0632 39.0734 30.6851 40.1473 31.7477 40.8488C32.6461 41.4418 33.8032 41.7319 35.0058 41.6662C36.5939 41.5791 37.8398 40.9732 38.7089 39.8653C39.369 39.0239 39.7865 37.9336 39.9709 36.5597C40.7277 37.0165 41.2886 37.6175 41.5984 38.3401C42.1252 39.5684 42.1559 41.5868 40.509 43.2323C39.066 44.6739 37.3315 45.2975 34.7102 45.3168C31.8024 45.2952 29.6033 44.3627 28.1735 42.5451C26.8346 40.8431 26.1427 38.3847 26.1169 35.2382C26.1427 32.0917 26.8346 29.6333 28.1735 27.9313C29.6033 26.1137 31.8024 25.1812 34.7101 25.1596C37.639 25.1814 39.8764 26.1184 41.3609 27.9447C42.0888 28.8404 42.6377 29.9667 42.9994 31.28L45.0579 30.7308C44.6194 29.1143 43.9293 27.7214 42.9903 26.5662C41.0871 24.2247 38.3037 23.0249 34.7173 23H34.7029C31.1239 23.0248 28.3716 24.2292 26.5226 26.5796C24.8773 28.6712 24.0286 31.5815 24.0001 35.2296L24 35.2382L24.0001 35.2468C24.0286 38.8949 24.8773 41.8053 26.5226 43.8969C28.3716 46.2473 31.1239 47.4517 34.7029 47.4764H34.7173C37.8993 47.4544 40.1422 46.6213 41.9899 44.7752C44.4073 42.3601 44.3346 39.3328 43.5378 37.4744C42.9662 36.1417 41.8763 35.0593 40.3861 34.3444ZM34.8921 39.5097C33.5612 39.5847 32.1785 38.9873 32.1103 37.7078C32.0598 36.7591 32.7855 35.7005 34.9738 35.5744C35.2244 35.5599 35.4703 35.5528 35.7118 35.5528C36.5067 35.5528 37.2503 35.6301 37.9263 35.7778C37.6742 38.9269 36.1951 39.4382 34.8921 39.5097Z" fill="white"/>
</svg>
