<svg width="70" height="70" viewBox="0 0 70 70" fill="none" xmlns="http://www.w3.org/2000/svg">
<path fill-rule="evenodd" clip-rule="evenodd" d="M46.3979 25.6139C47.6297 25.9525 48.5919 26.93 48.9252 28.1813C49.8683 32.038 49.6504 38.129 48.9435 42.1346C48.6102 43.3859 47.648 44.3633 46.4162 44.7019C44.2003 45.3159 35.2815 45.3159 35.2815 45.3159C35.2815 45.3159 26.3628 45.3159 24.1469 44.7019C22.9151 44.3633 21.9529 43.3859 21.6196 42.1346C20.671 38.2946 20.931 32.1999 21.6013 28.1999C21.9346 26.9486 22.8968 25.9711 24.1286 25.6325C26.3445 25.0186 35.2632 25 35.2632 25C35.2632 25 44.182 25 46.3979 25.6139ZM39.8242 35.1578L32.4255 39.5112V30.8044L39.8242 35.1578Z" fill="white"/>
</svg>
