<svg width="70" height="70" viewBox="0 0 70 70" fill="none" xmlns="http://www.w3.org/2000/svg">
<path d="M40.6264 31.1804C42.2634 32.3536 44.2688 33.0439 46.4347 33.0439V28.8651C46.0248 28.8652 45.616 28.8223 45.2149 28.7371V32.0265C43.0492 32.0265 41.0441 31.3362 39.4066 30.163V38.6908C39.4066 42.9568 35.9574 46.4148 31.7028 46.4148C30.1153 46.4148 28.6398 45.9336 27.4141 45.1084C28.813 46.5425 30.7639 47.4322 32.9223 47.4322C37.1772 47.4322 40.6266 43.9741 40.6266 39.708V31.1804H40.6264ZM42.1312 26.9644C41.2946 26.0481 40.7453 24.8638 40.6264 23.5546V23.0171H39.4705C39.7614 24.6811 40.7539 26.1028 42.1312 26.9644ZM30.1051 41.8348C29.6377 41.2203 29.3851 40.4686 29.3862 39.6957C29.3862 37.7446 30.9639 36.1626 32.9103 36.1626C33.273 36.1625 33.6336 36.2182 33.9793 36.3282V32.056C33.5753 32.0005 33.1676 31.9769 32.76 31.9855V35.3108C32.4141 35.2009 32.0533 35.145 31.6905 35.1453C29.7441 35.1453 28.1665 36.7272 28.1665 38.6785C28.1665 40.0583 28.9551 41.2529 30.1051 41.8348Z" fill="#CBCFFF"/>
<path d="M39.4072 30.1629C41.0447 31.3361 43.0498 32.0264 45.2156 32.0264V28.7371C44.0067 28.4789 42.9364 27.8455 42.1318 26.9644C40.7544 26.1027 39.7621 24.681 39.4711 23.0171H36.4348V39.7078C36.4279 41.6536 34.853 43.2291 32.9107 43.2291C31.7662 43.2291 30.7494 42.6821 30.1055 41.8348C28.9555 41.2528 28.167 40.0582 28.167 38.6786C28.167 36.7274 29.7445 35.1454 31.691 35.1454C32.0639 35.1454 32.4233 35.2036 32.7605 35.3109V31.9856C28.5806 32.0722 25.219 35.4965 25.219 39.7079C25.219 41.8101 26.0561 43.716 27.4148 45.1085C28.6405 45.9336 30.116 46.4149 31.7035 46.4149C35.9582 46.4149 39.4073 42.9567 39.4073 38.6908L39.4072 30.1629Z" fill="#CBCFFF"/>
<path d="M45.2163 28.7372V27.8478C44.1261 27.8495 43.0574 27.5434 42.1325 26.9645C42.9512 27.8633 44.0294 28.483 45.2163 28.7372ZM39.4718 23.0173C39.4441 22.8582 39.4227 22.6982 39.4079 22.5375V22H35.2156V38.6909C35.2089 40.6364 33.6341 42.2119 31.6917 42.2119C31.1214 42.2119 30.583 42.0762 30.1062 41.835C30.7501 42.6823 31.7669 43.2292 32.9115 43.2292C34.8535 43.2292 36.4287 41.6538 36.4355 39.708V23.0173H39.4718ZM32.7614 31.9858V31.039C32.4111 30.991 32.0579 30.9669 31.7043 30.9671C27.4492 30.9671 24 34.4252 24 38.6909C24 41.3652 25.3556 43.7221 27.4156 45.1085C26.0569 43.7161 25.2198 41.8102 25.2198 39.708C25.2198 35.4967 28.5813 32.0724 32.7614 31.9858Z" fill="#CBCFFF"/>
</svg>
