<svg width="70" height="70" viewBox="0 0 70 70" fill="none" xmlns="http://www.w3.org/2000/svg">
<path d="M45.4129 24.9808C43.4709 24.0554 41.3945 23.3829 39.2236 23C38.957 23.4909 38.6455 24.1512 38.4308 24.6764C36.1231 24.323 33.8367 24.323 31.5714 24.6764C31.3567 24.1512 31.0382 23.4909 30.7692 23C28.596 23.3829 26.5172 24.0579 24.5752 24.9857C20.6583 31.0137 19.5965 36.8921 20.1274 42.6869C22.7253 44.6627 25.243 45.863 27.7182 46.6484C28.3294 45.7918 28.8744 44.8812 29.344 43.9215C28.4497 43.5754 27.5932 43.1484 26.7838 42.6526C26.9986 42.4906 27.2086 42.3212 27.4115 42.1469C32.3477 44.4983 37.7111 44.4983 42.5884 42.1469C42.7937 42.3212 43.0037 42.4906 43.2161 42.6526C42.4043 43.1508 41.5455 43.5779 40.6512 43.924C41.1207 44.8812 41.6635 45.7943 42.2769 46.6508C44.7545 45.8654 47.2746 44.6652 49.8725 42.6869C50.4954 35.9692 48.8083 30.1448 45.4129 24.9808ZM30.0165 39.1231C28.5347 39.1231 27.3194 37.7143 27.3194 35.9986C27.3194 34.283 28.5087 32.8717 30.0165 32.8717C31.5243 32.8717 32.7394 34.2805 32.7135 35.9986C32.7158 37.7143 31.5243 39.1231 30.0165 39.1231ZM39.9834 39.1231C38.5016 39.1231 37.2864 37.7143 37.2864 35.9986C37.2864 34.283 38.4756 32.8717 39.9834 32.8717C41.4912 32.8717 42.7064 34.2805 42.6805 35.9986C42.6805 37.7143 41.4912 39.1231 39.9834 39.1231Z" fill="#CBCFFF"/>
</svg>
