<svg width="70" height="70" viewBox="0 0 70 70" fill="none" xmlns="http://www.w3.org/2000/svg">
<path d="M40.6264 31.1799C42.2634 32.3531 44.2688 33.0434 46.4347 33.0434V28.8646C46.0248 28.8647 45.616 28.8218 45.2149 28.7367V32.026C43.0492 32.026 41.0441 31.3357 39.4066 30.1625V38.6903C39.4066 42.9563 35.9574 46.4143 31.7028 46.4143C30.1153 46.4143 28.6398 45.9331 27.4141 45.1079C28.813 46.542 30.7639 47.4317 32.9223 47.4317C37.1772 47.4317 40.6266 43.9737 40.6266 39.7075V31.1799H40.6264ZM42.1312 26.964C41.2946 26.0476 40.7453 24.8633 40.6264 23.5541V23.0166H39.4705C39.7614 24.6806 40.7539 26.1023 42.1312 26.964ZM30.1051 41.8343C29.6377 41.2198 29.3851 40.4681 29.3862 39.6952C29.3862 37.7441 30.9639 36.1621 32.9103 36.1621C33.273 36.162 33.6336 36.2177 33.9793 36.3277V32.0555C33.5753 32 33.1676 31.9764 32.76 31.9851V35.3103C32.4141 35.2004 32.0533 35.1445 31.6905 35.1449C29.7441 35.1449 28.1665 36.7267 28.1665 38.6781C28.1665 40.0578 28.9551 41.2524 30.1051 41.8343Z" fill="#FF004F"/>
<path d="M39.4075 30.1624C41.0449 31.3356 43.0501 32.0259 45.2158 32.0259V28.7366C44.0069 28.4784 42.9367 27.845 42.132 26.964C40.7547 26.1022 39.7623 24.6806 39.4713 23.0166H36.4351V39.7073C36.4282 41.6531 34.8532 43.2286 32.911 43.2286C31.7665 43.2286 30.7497 42.6816 30.1057 41.8343C28.9558 41.2524 28.1672 40.0577 28.1672 38.6781C28.1672 36.7269 29.7448 35.1449 31.6912 35.1449C32.0641 35.1449 32.4236 35.2032 32.7607 35.3104V31.9851C28.5809 32.0717 25.2192 35.496 25.2192 39.7074C25.2192 41.8097 26.0564 43.7155 27.415 45.108C28.6407 45.9331 30.1162 46.4144 31.7037 46.4144C35.9584 46.4144 39.4076 42.9562 39.4076 38.6903L39.4075 30.1624Z" fill="white"/>
<path d="M45.2163 28.7372V27.8478C44.1261 27.8495 43.0574 27.5434 42.1325 26.9645C42.9512 27.8633 44.0294 28.483 45.2163 28.7372ZM39.4718 23.0173C39.4441 22.8582 39.4227 22.6982 39.4079 22.5375V22H35.2156V38.6909C35.2089 40.6364 33.6341 42.2119 31.6917 42.2119C31.1214 42.2119 30.583 42.0762 30.1062 41.835C30.7501 42.6823 31.7669 43.2292 32.9115 43.2292C34.8535 43.2292 36.4287 41.6538 36.4355 39.708V23.0173H39.4718ZM32.7614 31.9858V31.039C32.4111 30.991 32.0579 30.9669 31.7043 30.9671C27.4492 30.9671 24 34.4252 24 38.6909C24 41.3652 25.3556 43.7221 27.4156 45.1085C26.0569 43.7161 25.2198 41.8102 25.2198 39.708C25.2198 35.4967 28.5813 32.0724 32.7614 31.9858Z" fill="#D2E4FF"/>
</svg>
