<svg width="1920" height="1080" viewBox="0 0 1920 1080" fill="none" xmlns="http://www.w3.org/2000/svg">
<g opacity="0.72">
<mask id="mask0_981_52115" style="mask-type:alpha" maskUnits="userSpaceOnUse" x="-41" y="-73" width="2015" height="1266">
<rect x="-41" y="-72.582" width="2015" height="1265.16" fill="url(#paint0_radial_981_52115)"/>
</mask>
<g mask="url(#mask0_981_52115)">
<path d="M1922.76 -57.8008H-3.55664V1138.39H1922.76V-57.8008Z" stroke="#B3B3B3"/>
<path d="M1881.76 -32.3418H37.4404V1112.93H1881.76V-32.3418Z" stroke="#B3B3B3"/>
<path d="M1841.92 -7.59961H77.2842V1088.19H1841.92V-7.59961Z" stroke="#B3B3B3"/>
<path d="M1803.23 16.4219H115.975V1064.16H1803.23V16.4219Z" stroke="#B3B3B3"/>
<path d="M1765.7 39.7363H153.51V1040.86H1765.7V39.7363Z" stroke="#B3B3B3"/>
<path d="M1729.31 62.3223H189.887V1018.26H1729.31V62.3223Z" stroke="#B3B3B3"/>
<path d="M1694.09 84.1953H225.113V996.389H1694.09V84.1953Z" stroke="#B3B3B3"/>
<path d="M1660.02 105.352H259.183V975.233H1660.02V105.352Z" stroke="#B3B3B3"/>
<path d="M1627.11 125.791H292.096V954.794H1627.11V125.791Z" stroke="#B3B3B3"/>
<path d="M1595.35 145.516H323.858V935.075H1595.35V145.516Z" stroke="#B3B3B3"/>
<path d="M1564.74 164.518H354.463V916.067H1564.74V164.518Z" stroke="#B3B3B3"/>
<path d="M1535.29 182.807H383.911V897.781H1535.29V182.807Z" stroke="#B3B3B3"/>
<path d="M1507 200.377H412.205V880.211H1507V200.377Z" stroke="#B3B3B3"/>
<path d="M1479.86 217.229H439.347V863.356H1479.86V217.229Z" stroke="#B3B3B3"/>
<path d="M1453.87 233.367H465.332V847.222H1453.87V233.367Z" stroke="#B3B3B3"/>
<path d="M1429.04 248.785H490.161V831.803H1429.04V248.785Z" stroke="#B3B3B3"/>
<path d="M1405.37 263.484H513.836V817.099H1405.37V263.484Z" stroke="#B3B3B3"/>
<path d="M1382.85 277.469H536.357V803.114H1382.85V277.469Z" stroke="#B3B3B3"/>
<path d="M1361.48 290.738H557.724V789.849H1361.48V290.738Z" stroke="#B3B3B3"/>
<path d="M1341.27 303.285H577.935V777.295H1341.27V303.285Z" stroke="#B3B3B3"/>
<path d="M1322.21 315.121H596.989V765.465H1322.21V315.121Z" stroke="#B3B3B3"/>
<path d="M1304.31 326.236H614.891V754.348H1304.31V326.236Z" stroke="#B3B3B3"/>
<path d="M1287.57 336.637H631.637V743.951H1287.57V336.637Z" stroke="#B3B3B3"/>
<path d="M1271.98 346.318H647.229V734.269H1271.98V346.318Z" stroke="#B3B3B3"/>
<path d="M1257.54 355.283H661.665V725.305H1257.54V355.283Z" stroke="#B3B3B3"/>
<path d="M1244.26 363.529H674.945V717.056H1244.26V363.529Z" stroke="#B3B3B3"/>
<path d="M1232.13 371.061H687.072V709.527H1232.13V371.061Z" stroke="#B3B3B3"/>
<path d="M1221.16 377.873H698.045V702.714H1221.16V377.873Z" stroke="#B3B3B3"/>
<path d="M1211.34 383.969H707.861V696.617H1211.34V383.969Z" stroke="#B3B3B3"/>
<path d="M1202.68 389.348H716.521V691.239H1202.68V389.348Z" stroke="#B3B3B3"/>
<path d="M1195.18 394.01H724.03V686.578H1195.18V394.01Z" stroke="#B3B3B3"/>
<path d="M1188.82 397.953H730.383V682.633H1188.82V397.953Z" stroke="#B3B3B3"/>
<path d="M1183.63 401.18H735.578V679.405H1183.63V401.18Z" stroke="#B3B3B3"/>
<path d="M1179.58 403.691H739.621V676.896H1179.58V403.691Z" stroke="#B3B3B3"/>
<path d="M1176.7 405.484H742.508V675.103H1176.7V405.484Z" stroke="#B3B3B3"/>
<path d="M1174.96 406.559H744.239V674.026H1174.96V406.559Z" stroke="#B3B3B3"/>
<path d="M1174.39 406.918H744.817V673.668H1174.39V406.918Z" stroke="#B3B3B3"/>
<path d="M744.818 673.67L-3.55741 1138.39" stroke="#B3B3B3"/>
<path d="M767.427 673.67L133.585 1138.39" stroke="#B3B3B3"/>
<path d="M790.035 673.67L255.705 1138.39" stroke="#B3B3B3"/>
<path d="M812.643 673.67L366.707 1138.39" stroke="#B3B3B3"/>
<path d="M835.254 673.67L469.395 1138.39" stroke="#B3B3B3"/>
<path d="M857.862 673.67L565.845 1138.39" stroke="#B3B3B3"/>
<path d="M880.472 673.67L657.67 1138.39" stroke="#B3B3B3"/>
<path d="M903.079 673.67L746.161 1138.39" stroke="#B3B3B3"/>
<path d="M925.689 673.67L832.404 1138.39" stroke="#B3B3B3"/>
<path d="M948.298 673.67L917.345 1138.39" stroke="#B3B3B3"/>
<path d="M970.906 673.67L1001.86 1138.39" stroke="#B3B3B3"/>
<path d="M993.515 673.67L1086.8 1138.39" stroke="#B3B3B3"/>
<path d="M1016.12 673.67L1173.04 1138.39" stroke="#B3B3B3"/>
<path d="M1038.73 673.67L1261.54 1138.39" stroke="#B3B3B3"/>
<path d="M1061.34 673.67L1353.36 1138.39" stroke="#B3B3B3"/>
<path d="M1083.95 673.67L1449.81 1138.39" stroke="#B3B3B3"/>
<path d="M1106.56 673.67L1552.49 1138.39" stroke="#B3B3B3"/>
<path d="M1129.17 673.67L1663.5 1138.39" stroke="#B3B3B3"/>
<path d="M1151.78 673.67L1785.62 1138.39" stroke="#B3B3B3"/>
<path d="M1174.39 673.67L1922.76 1138.39" stroke="#B3B3B3"/>
<path d="M744.817 406.92L-3.55828 -57.7996" stroke="#B3B3B3"/>
<path d="M744.817 420.961L-3.5582 27.3636" stroke="#B3B3B3"/>
<path d="M744.817 435L-3.55812 103.197" stroke="#B3B3B3"/>
<path d="M744.817 449.039L-3.55804 172.126" stroke="#B3B3B3"/>
<path d="M744.817 463.08L-3.55802 235.893" stroke="#B3B3B3"/>
<path d="M744.817 477.119L-3.55798 295.785" stroke="#B3B3B3"/>
<path d="M744.817 491.158L-3.55789 352.805" stroke="#B3B3B3"/>
<path d="M744.817 505.197L-3.55787 407.756" stroke="#B3B3B3"/>
<path d="M744.817 519.236L-3.5579 461.309" stroke="#B3B3B3"/>
<path d="M744.817 533.273L-3.55714 514.053" stroke="#B3B3B3"/>
<path d="M744.817 547.316L-3.55714 566.537" stroke="#B3B3B3"/>
<path d="M744.817 561.355L-3.5579 619.283" stroke="#B3B3B3"/>
<path d="M744.817 575.395L-3.55787 672.836" stroke="#B3B3B3"/>
<path d="M744.817 589.436L-3.55789 727.788" stroke="#B3B3B3"/>
<path d="M744.817 603.473L-3.55798 784.807" stroke="#B3B3B3"/>
<path d="M744.817 617.512L-3.55802 844.699" stroke="#B3B3B3"/>
<path d="M744.817 631.551L-3.55804 908.463" stroke="#B3B3B3"/>
<path d="M744.817 645.594L-3.55812 977.397" stroke="#B3B3B3"/>
<path d="M744.817 659.633L-3.5582 1053.23" stroke="#B3B3B3"/>
<path d="M744.817 673.672L-3.55828 1138.39" stroke="#B3B3B3"/>
<path d="M1174.39 406.92L1922.76 -57.7996" stroke="#B3B3B3"/>
<path d="M1151.78 406.92L1785.62 -57.7996" stroke="#B3B3B3"/>
<path d="M1129.17 406.92L1663.5 -57.7996" stroke="#B3B3B3"/>
<path d="M1106.56 406.92L1552.5 -57.7997" stroke="#B3B3B3"/>
<path d="M1083.95 406.92L1449.81 -57.7998" stroke="#B3B3B3"/>
<path d="M1061.34 406.92L1353.36 -57.7999" stroke="#B3B3B3"/>
<path d="M1038.73 406.92L1261.53 -57.7999" stroke="#B3B3B3"/>
<path d="M1016.12 406.92L1173.04 -57.7999" stroke="#B3B3B3"/>
<path d="M993.516 406.92L1086.8 -57.8" stroke="#B3B3B3"/>
<path d="M970.907 406.92L1001.86 -57.8001" stroke="#B3B3B3"/>
<path d="M948.299 406.92L917.346 -57.8001" stroke="#B3B3B3"/>
<path d="M925.692 406.92L832.407 -57.8" stroke="#B3B3B3"/>
<path d="M903.081 406.92L746.163 -57.7999" stroke="#B3B3B3"/>
<path d="M880.472 406.92L657.67 -57.7999" stroke="#B3B3B3"/>
<path d="M857.863 406.92L565.846 -57.7999" stroke="#B3B3B3"/>
<path d="M835.253 406.92L469.394 -57.7998" stroke="#B3B3B3"/>
<path d="M812.646 406.92L366.71 -57.7997" stroke="#B3B3B3"/>
<path d="M790.035 406.92L255.705 -57.7996" stroke="#B3B3B3"/>
<path d="M767.428 406.92L133.586 -57.7996" stroke="#B3B3B3"/>
<path d="M744.817 406.92L-3.55828 -57.7996" stroke="#B3B3B3"/>
<path d="M1174.39 673.668L1922.76 1138.39" stroke="#B3B3B3"/>
<path d="M1174.39 659.627L1922.76 1053.22" stroke="#B3B3B3"/>
<path d="M1174.39 645.586L1922.76 977.389" stroke="#B3B3B3"/>
<path d="M1174.39 631.547L1922.76 908.459" stroke="#B3B3B3"/>
<path d="M1174.39 617.506L1922.76 844.693" stroke="#B3B3B3"/>
<path d="M1174.39 603.469L1922.76 784.803" stroke="#B3B3B3"/>
<path d="M1174.39 589.43L1922.76 727.783" stroke="#B3B3B3"/>
<path d="M1174.39 575.389L1922.76 672.83" stroke="#B3B3B3"/>
<path d="M1174.39 561.352L1922.76 619.279" stroke="#B3B3B3"/>
<path d="M1174.39 547.314L1922.76 566.535" stroke="#B3B3B3"/>
<path d="M1174.39 533.27L1922.76 514.049" stroke="#B3B3B3"/>
<path d="M1174.39 519.232L1922.76 461.305" stroke="#B3B3B3"/>
<path d="M1174.39 505.193L1922.76 407.752" stroke="#B3B3B3"/>
<path d="M1174.39 491.154L1922.76 352.801" stroke="#B3B3B3"/>
<path d="M1174.39 477.115L1922.76 295.781" stroke="#B3B3B3"/>
<path d="M1174.39 463.076L1922.76 235.889" stroke="#B3B3B3"/>
<path d="M1174.39 449.037L1922.76 172.125" stroke="#B3B3B3"/>
<path d="M1174.39 434.996L1922.76 103.193" stroke="#B3B3B3"/>
<path d="M1174.39 420.957L1922.76 27.3599" stroke="#B3B3B3"/>
<path d="M1174.39 406.916L1922.76 -57.8033" stroke="#B3B3B3"/>
</g>
</g>
<defs>
<radialGradient id="paint0_radial_981_52115" cx="0" cy="0" r="1" gradientUnits="userSpaceOnUse" gradientTransform="translate(966.5 560) rotate(90) scale(632.582 1007.5)">
<stop offset="0.275" stop-opacity="0"/>
<stop offset="1" stop-color="#000A15"/>
</radialGradient>
</defs>
</svg>
